<mxfile host="app.diagrams.net" modified="2022-05-12T17:55:22.899Z" agent="5.0 (Windows NT 10.0; Win64; x64) AppleWebKit/537.36 (KHTML, like Gecko) Chrome/101.0.4951.64 Safari/537.36" etag="Zt5P5TtAP8j23qoykVKz" version="18.0.2" type="github">
  <diagram name="Page-1" id="58cdce13-f638-feb5-8d6f-7d28b1aa9fa0">
    <mxGraphModel dx="1657" dy="1246" grid="1" gridSize="10" guides="1" tooltips="1" connect="1" arrows="1" fold="1" page="1" pageScale="1" pageWidth="1100" pageHeight="850" background="none" math="0" shadow="0">
      <root>
        <mxCell id="0" />
        <mxCell id="1" parent="0" />
        <mxCell id="PzlY1NgHu-uQ2nLMQ3hD-25" value="Expression" style="html=1;align=center;verticalAlign=middle;rounded=1;absoluteArcSize=1;arcSize=10;dashed=0;" parent="1" vertex="1">
          <mxGeometry x="850" y="55" width="70" height="30" as="geometry" />
        </mxCell>
        <mxCell id="PzlY1NgHu-uQ2nLMQ3hD-26" value="&quot;{&quot;" style="text;html=1;align=center;verticalAlign=middle;dashed=0;fillColor=#ffffff;strokeColor=#000000;" parent="1" vertex="1">
          <mxGeometry x="710" y="95" width="30" height="30" as="geometry" />
        </mxCell>
        <mxCell id="PzlY1NgHu-uQ2nLMQ3hD-27" value="Identifier" style="ellipse;" parent="1" vertex="1">
          <mxGeometry x="710" y="55" width="60" height="30" as="geometry" />
        </mxCell>
        <mxCell id="PzlY1NgHu-uQ2nLMQ3hD-30" value="Statement" style="html=1;align=center;verticalAlign=middle;rounded=1;absoluteArcSize=1;arcSize=10;dashed=0;" parent="1" vertex="1">
          <mxGeometry x="850" y="15" width="70" height="30" as="geometry" />
        </mxCell>
        <mxCell id="PzlY1NgHu-uQ2nLMQ3hD-31" value="Define" style="html=1;align=center;verticalAlign=middle;rounded=1;absoluteArcSize=1;arcSize=10;dashed=0;" parent="1" vertex="1">
          <mxGeometry x="710" y="15" width="60" height="30" as="geometry" />
        </mxCell>
        <mxCell id="PzlY1NgHu-uQ2nLMQ3hD-32" value="Method" style="html=1;align=center;verticalAlign=middle;rounded=1;absoluteArcSize=1;arcSize=10;dashed=0;" parent="1" vertex="1">
          <mxGeometry x="780" y="15" width="60" height="30" as="geometry" />
        </mxCell>
        <mxCell id="PzlY1NgHu-uQ2nLMQ3hD-34" value="&quot;}&quot;" style="text;html=1;align=center;verticalAlign=middle;dashed=0;fillColor=#ffffff;strokeColor=#000000;" parent="1" vertex="1">
          <mxGeometry x="750" y="95" width="30" height="30" as="geometry" />
        </mxCell>
        <mxCell id="PzlY1NgHu-uQ2nLMQ3hD-35" value="&quot;(&quot;" style="text;html=1;align=center;verticalAlign=middle;dashed=0;fillColor=#ffffff;strokeColor=#000000;" parent="1" vertex="1">
          <mxGeometry x="850" y="95" width="30" height="30" as="geometry" />
        </mxCell>
        <mxCell id="PzlY1NgHu-uQ2nLMQ3hD-36" value="&quot;)&quot;" style="text;html=1;align=center;verticalAlign=middle;dashed=0;fillColor=#ffffff;strokeColor=#000000;" parent="1" vertex="1">
          <mxGeometry x="890" y="95" width="30" height="30" as="geometry" />
        </mxCell>
        <mxCell id="PzlY1NgHu-uQ2nLMQ3hD-37" value="&quot;;&quot;" style="text;html=1;align=center;verticalAlign=middle;dashed=0;fillColor=#ffffff;strokeColor=#000000;" parent="1" vertex="1">
          <mxGeometry x="800" y="95" width="30" height="30" as="geometry" />
        </mxCell>
        <mxCell id="PzlY1NgHu-uQ2nLMQ3hD-38" value="&quot;if&quot;" style="text;html=1;align=center;verticalAlign=middle;dashed=0;fillColor=#ffffff;strokeColor=#000000;" parent="1" vertex="1">
          <mxGeometry x="780" y="135" width="30" height="30" as="geometry" />
        </mxCell>
        <mxCell id="PzlY1NgHu-uQ2nLMQ3hD-39" value="&quot;while&quot;" style="text;html=1;align=center;verticalAlign=middle;dashed=0;fillColor=#ffffff;strokeColor=#000000;" parent="1" vertex="1">
          <mxGeometry x="820" y="135" width="50" height="30" as="geometry" />
        </mxCell>
        <mxCell id="PzlY1NgHu-uQ2nLMQ3hD-40" value="&quot;for&quot;" style="text;html=1;align=center;verticalAlign=middle;dashed=0;fillColor=#ffffff;strokeColor=#000000;" parent="1" vertex="1">
          <mxGeometry x="880" y="135" width="40" height="30" as="geometry" />
        </mxCell>
        <mxCell id="PzlY1NgHu-uQ2nLMQ3hD-41" value="&quot;#define&quot;" style="text;html=1;align=center;verticalAlign=middle;dashed=0;fillColor=#ffffff;strokeColor=#000000;" parent="1" vertex="1">
          <mxGeometry x="710" y="135" width="60" height="30" as="geometry" />
        </mxCell>
        <mxCell id="PzlY1NgHu-uQ2nLMQ3hD-46" value="Numerical Literal" style="ellipse;whiteSpace=wrap;" parent="1" vertex="1">
          <mxGeometry x="772.5" y="52.5" width="75" height="35" as="geometry" />
        </mxCell>
        <mxCell id="PzlY1NgHu-uQ2nLMQ3hD-66" value="" style="group" parent="1" vertex="1" connectable="0">
          <mxGeometry x="10" y="10" width="510" height="90" as="geometry" />
        </mxCell>
        <mxCell id="PzlY1NgHu-uQ2nLMQ3hD-22" value=".bp file" style="shape=umlFrame;whiteSpace=wrap;html=1;width=60;height=30;boundedLbl=1;verticalAlign=middle;align=left;spacingLeft=5;" parent="PzlY1NgHu-uQ2nLMQ3hD-66" vertex="1">
          <mxGeometry width="510" height="90" as="geometry" />
        </mxCell>
        <mxCell id="PzlY1NgHu-uQ2nLMQ3hD-65" value="" style="group" parent="PzlY1NgHu-uQ2nLMQ3hD-66" vertex="1" connectable="0">
          <mxGeometry x="65" y="10" width="440" height="65" as="geometry" />
        </mxCell>
        <mxCell id="PzlY1NgHu-uQ2nLMQ3hD-47" style="edgeStyle=orthogonalEdgeStyle;orthogonalLoop=1;jettySize=auto;html=1;entryX=0;entryY=0.5;entryDx=0;entryDy=0;rounded=1;" parent="PzlY1NgHu-uQ2nLMQ3hD-65" target="PzlY1NgHu-uQ2nLMQ3hD-43" edge="1">
          <mxGeometry relative="1" as="geometry">
            <mxPoint x="20" y="15" as="sourcePoint" />
            <Array as="points">
              <mxPoint x="40" y="15" />
              <mxPoint x="40" y="50" />
            </Array>
          </mxGeometry>
        </mxCell>
        <mxCell id="PzlY1NgHu-uQ2nLMQ3hD-23" value="" style="ellipse;fillColor=#000000;strokeColor=none;" parent="PzlY1NgHu-uQ2nLMQ3hD-65" vertex="1">
          <mxGeometry width="30" height="30" as="geometry" />
        </mxCell>
        <mxCell id="PzlY1NgHu-uQ2nLMQ3hD-24" value="" style="shape=sumEllipse;perimeter=ellipsePerimeter;whiteSpace=wrap;html=1;backgroundOutline=1;" parent="PzlY1NgHu-uQ2nLMQ3hD-65" vertex="1">
          <mxGeometry x="410" width="30" height="30" as="geometry" />
        </mxCell>
        <mxCell id="PzlY1NgHu-uQ2nLMQ3hD-42" style="edgeStyle=orthogonalEdgeStyle;rounded=0;orthogonalLoop=1;jettySize=auto;html=1;exitX=1;exitY=0.5;exitDx=0;exitDy=0;entryX=0;entryY=0.5;entryDx=0;entryDy=0;curved=1;" parent="PzlY1NgHu-uQ2nLMQ3hD-65" source="PzlY1NgHu-uQ2nLMQ3hD-23" target="PzlY1NgHu-uQ2nLMQ3hD-24" edge="1">
          <mxGeometry relative="1" as="geometry" />
        </mxCell>
        <mxCell id="PzlY1NgHu-uQ2nLMQ3hD-48" style="edgeStyle=orthogonalEdgeStyle;orthogonalLoop=1;jettySize=auto;html=1;exitX=1;exitY=0.5;exitDx=0;exitDy=0;endArrow=none;endFill=0;rounded=1;" parent="PzlY1NgHu-uQ2nLMQ3hD-65" source="PzlY1NgHu-uQ2nLMQ3hD-43" edge="1">
          <mxGeometry relative="1" as="geometry">
            <mxPoint x="160" y="15" as="targetPoint" />
            <Array as="points">
              <mxPoint x="140" y="50" />
              <mxPoint x="140" y="15" />
              <mxPoint x="160" y="15" />
            </Array>
          </mxGeometry>
        </mxCell>
        <mxCell id="PzlY1NgHu-uQ2nLMQ3hD-43" value="Define" style="html=1;align=center;verticalAlign=middle;rounded=1;absoluteArcSize=1;arcSize=10;dashed=0;" parent="PzlY1NgHu-uQ2nLMQ3hD-65" vertex="1">
          <mxGeometry x="60" y="35" width="60" height="30" as="geometry" />
        </mxCell>
        <mxCell id="PzlY1NgHu-uQ2nLMQ3hD-49" style="edgeStyle=orthogonalEdgeStyle;orthogonalLoop=1;jettySize=auto;html=1;exitX=1;exitY=0.5;exitDx=0;exitDy=0;entryX=0;entryY=0.5;entryDx=0;entryDy=0;endArrow=none;endFill=0;rounded=1;" parent="PzlY1NgHu-uQ2nLMQ3hD-65" source="PzlY1NgHu-uQ2nLMQ3hD-43" target="PzlY1NgHu-uQ2nLMQ3hD-43" edge="1">
          <mxGeometry relative="1" as="geometry">
            <Array as="points">
              <mxPoint x="140" y="50" />
              <mxPoint x="140" y="25" />
              <mxPoint x="40" y="25" />
              <mxPoint x="40" y="50" />
            </Array>
          </mxGeometry>
        </mxCell>
        <mxCell id="PzlY1NgHu-uQ2nLMQ3hD-54" value="" style="group" parent="PzlY1NgHu-uQ2nLMQ3hD-65" vertex="1" connectable="0">
          <mxGeometry x="140" y="15" width="140" height="50" as="geometry" />
        </mxCell>
        <mxCell id="PzlY1NgHu-uQ2nLMQ3hD-50" style="edgeStyle=orthogonalEdgeStyle;orthogonalLoop=1;jettySize=auto;html=1;exitX=1;exitY=0.5;exitDx=0;exitDy=0;entryX=0;entryY=0.5;entryDx=0;entryDy=0;rounded=1;" parent="PzlY1NgHu-uQ2nLMQ3hD-54" target="PzlY1NgHu-uQ2nLMQ3hD-52" edge="1">
          <mxGeometry relative="1" as="geometry">
            <mxPoint as="sourcePoint" />
          </mxGeometry>
        </mxCell>
        <mxCell id="PzlY1NgHu-uQ2nLMQ3hD-51" style="edgeStyle=orthogonalEdgeStyle;orthogonalLoop=1;jettySize=auto;html=1;exitX=1;exitY=0.5;exitDx=0;exitDy=0;endArrow=none;endFill=0;rounded=1;" parent="PzlY1NgHu-uQ2nLMQ3hD-54" source="PzlY1NgHu-uQ2nLMQ3hD-52" edge="1">
          <mxGeometry relative="1" as="geometry">
            <mxPoint x="140" as="targetPoint" />
            <Array as="points">
              <mxPoint x="120" y="35" />
              <mxPoint x="120" />
              <mxPoint x="140" />
            </Array>
          </mxGeometry>
        </mxCell>
        <mxCell id="PzlY1NgHu-uQ2nLMQ3hD-52" value="Method" style="html=1;align=center;verticalAlign=middle;rounded=1;absoluteArcSize=1;arcSize=10;dashed=0;" parent="PzlY1NgHu-uQ2nLMQ3hD-54" vertex="1">
          <mxGeometry x="40" y="20" width="60" height="30" as="geometry" />
        </mxCell>
        <mxCell id="PzlY1NgHu-uQ2nLMQ3hD-53" style="edgeStyle=orthogonalEdgeStyle;orthogonalLoop=1;jettySize=auto;html=1;exitX=1;exitY=0.5;exitDx=0;exitDy=0;entryX=0;entryY=0.5;entryDx=0;entryDy=0;endArrow=none;endFill=0;rounded=1;" parent="PzlY1NgHu-uQ2nLMQ3hD-54" source="PzlY1NgHu-uQ2nLMQ3hD-52" target="PzlY1NgHu-uQ2nLMQ3hD-52" edge="1">
          <mxGeometry relative="1" as="geometry">
            <Array as="points">
              <mxPoint x="120" y="35" />
              <mxPoint x="120" y="10" />
              <mxPoint x="20" y="10" />
              <mxPoint x="20" y="35" />
            </Array>
          </mxGeometry>
        </mxCell>
        <mxCell id="PzlY1NgHu-uQ2nLMQ3hD-64" value="" style="group" parent="PzlY1NgHu-uQ2nLMQ3hD-65" vertex="1" connectable="0">
          <mxGeometry x="260" y="15" width="130" height="50" as="geometry" />
        </mxCell>
        <mxCell id="PzlY1NgHu-uQ2nLMQ3hD-55" style="edgeStyle=orthogonalEdgeStyle;orthogonalLoop=1;jettySize=auto;html=1;exitX=1;exitY=0.5;exitDx=0;exitDy=0;entryX=0;entryY=0.5;entryDx=0;entryDy=0;rounded=1;" parent="PzlY1NgHu-uQ2nLMQ3hD-64" target="PzlY1NgHu-uQ2nLMQ3hD-57" edge="1">
          <mxGeometry relative="1" as="geometry">
            <mxPoint as="sourcePoint" />
          </mxGeometry>
        </mxCell>
        <mxCell id="PzlY1NgHu-uQ2nLMQ3hD-56" style="edgeStyle=orthogonalEdgeStyle;orthogonalLoop=1;jettySize=auto;html=1;exitX=1;exitY=0.5;exitDx=0;exitDy=0;endArrow=none;endFill=0;rounded=1;" parent="PzlY1NgHu-uQ2nLMQ3hD-64" source="PzlY1NgHu-uQ2nLMQ3hD-57" edge="1">
          <mxGeometry relative="1" as="geometry">
            <mxPoint x="150" as="targetPoint" />
            <Array as="points">
              <mxPoint x="130" y="35" />
              <mxPoint x="130" />
            </Array>
          </mxGeometry>
        </mxCell>
        <mxCell id="PzlY1NgHu-uQ2nLMQ3hD-57" value="Statement" style="html=1;align=center;verticalAlign=middle;rounded=1;absoluteArcSize=1;arcSize=10;dashed=0;" parent="PzlY1NgHu-uQ2nLMQ3hD-64" vertex="1">
          <mxGeometry x="40" y="20" width="70" height="30" as="geometry" />
        </mxCell>
        <mxCell id="PzlY1NgHu-uQ2nLMQ3hD-58" style="edgeStyle=orthogonalEdgeStyle;orthogonalLoop=1;jettySize=auto;html=1;exitX=1;exitY=0.5;exitDx=0;exitDy=0;entryX=0;entryY=0.5;entryDx=0;entryDy=0;endArrow=none;endFill=0;rounded=1;" parent="PzlY1NgHu-uQ2nLMQ3hD-64" source="PzlY1NgHu-uQ2nLMQ3hD-57" target="PzlY1NgHu-uQ2nLMQ3hD-57" edge="1">
          <mxGeometry relative="1" as="geometry">
            <Array as="points">
              <mxPoint x="130" y="35" />
              <mxPoint x="130" y="10" />
              <mxPoint x="20" y="10" />
              <mxPoint x="20" y="35" />
            </Array>
          </mxGeometry>
        </mxCell>
        <mxCell id="PzlY1NgHu-uQ2nLMQ3hD-92" value="" style="group" parent="1" vertex="1" connectable="0">
          <mxGeometry x="10" y="110" width="354" height="80" as="geometry" />
        </mxCell>
        <mxCell id="PzlY1NgHu-uQ2nLMQ3hD-88" value="Define" style="shape=umlFrame;whiteSpace=wrap;html=1;width=60;height=30;boundedLbl=1;verticalAlign=middle;align=left;spacingLeft=5;" parent="PzlY1NgHu-uQ2nLMQ3hD-92" vertex="1">
          <mxGeometry width="354" height="80" as="geometry" />
        </mxCell>
        <mxCell id="PzlY1NgHu-uQ2nLMQ3hD-89" value="" style="group" parent="PzlY1NgHu-uQ2nLMQ3hD-92" vertex="1" connectable="0">
          <mxGeometry x="10" y="37" width="334" height="35" as="geometry" />
        </mxCell>
        <mxCell id="PzlY1NgHu-uQ2nLMQ3hD-78" value="" style="ellipse;fillColor=#000000;strokeColor=none;" parent="PzlY1NgHu-uQ2nLMQ3hD-89" vertex="1">
          <mxGeometry y="2.5" width="30" height="30" as="geometry" />
        </mxCell>
        <mxCell id="PzlY1NgHu-uQ2nLMQ3hD-79" value="" style="shape=sumEllipse;perimeter=ellipsePerimeter;whiteSpace=wrap;html=1;backgroundOutline=1;" parent="PzlY1NgHu-uQ2nLMQ3hD-89" vertex="1">
          <mxGeometry x="304" y="2.5" width="30" height="30" as="geometry" />
        </mxCell>
        <mxCell id="PzlY1NgHu-uQ2nLMQ3hD-80" value="&quot;#define&quot;" style="text;html=1;align=center;verticalAlign=middle;dashed=0;fillColor=#ffffff;strokeColor=#000000;" parent="PzlY1NgHu-uQ2nLMQ3hD-89" vertex="1">
          <mxGeometry x="50" y="2.5" width="60" height="30" as="geometry" />
        </mxCell>
        <mxCell id="PzlY1NgHu-uQ2nLMQ3hD-83" style="edgeStyle=orthogonalEdgeStyle;rounded=1;orthogonalLoop=1;jettySize=auto;html=1;exitX=1;exitY=0.5;exitDx=0;exitDy=0;entryX=0;entryY=0.5;entryDx=0;entryDy=0;endArrow=classic;endFill=1;" parent="PzlY1NgHu-uQ2nLMQ3hD-89" source="PzlY1NgHu-uQ2nLMQ3hD-78" target="PzlY1NgHu-uQ2nLMQ3hD-80" edge="1">
          <mxGeometry relative="1" as="geometry" />
        </mxCell>
        <mxCell id="PzlY1NgHu-uQ2nLMQ3hD-81" value="Identifier" style="ellipse;" parent="PzlY1NgHu-uQ2nLMQ3hD-89" vertex="1">
          <mxGeometry x="130" y="2.5" width="60" height="30" as="geometry" />
        </mxCell>
        <mxCell id="PzlY1NgHu-uQ2nLMQ3hD-84" style="edgeStyle=orthogonalEdgeStyle;rounded=1;orthogonalLoop=1;jettySize=auto;html=1;exitX=1;exitY=0.5;exitDx=0;exitDy=0;entryX=0;entryY=0.5;entryDx=0;entryDy=0;endArrow=classic;endFill=1;" parent="PzlY1NgHu-uQ2nLMQ3hD-89" source="PzlY1NgHu-uQ2nLMQ3hD-80" target="PzlY1NgHu-uQ2nLMQ3hD-81" edge="1">
          <mxGeometry relative="1" as="geometry" />
        </mxCell>
        <mxCell id="PzlY1NgHu-uQ2nLMQ3hD-87" style="edgeStyle=orthogonalEdgeStyle;rounded=1;orthogonalLoop=1;jettySize=auto;html=1;exitX=1;exitY=0.5;exitDx=0;exitDy=0;entryX=0;entryY=0.5;entryDx=0;entryDy=0;endArrow=classic;endFill=1;" parent="PzlY1NgHu-uQ2nLMQ3hD-89" source="PzlY1NgHu-uQ2nLMQ3hD-82" target="PzlY1NgHu-uQ2nLMQ3hD-79" edge="1">
          <mxGeometry relative="1" as="geometry" />
        </mxCell>
        <mxCell id="PzlY1NgHu-uQ2nLMQ3hD-82" value="Numerical Literal" style="ellipse;whiteSpace=wrap;" parent="PzlY1NgHu-uQ2nLMQ3hD-89" vertex="1">
          <mxGeometry x="210" width="75" height="35" as="geometry" />
        </mxCell>
        <mxCell id="PzlY1NgHu-uQ2nLMQ3hD-85" style="edgeStyle=orthogonalEdgeStyle;rounded=1;orthogonalLoop=1;jettySize=auto;html=1;exitX=1;exitY=0.5;exitDx=0;exitDy=0;entryX=0;entryY=0.5;entryDx=0;entryDy=0;endArrow=classic;endFill=1;" parent="PzlY1NgHu-uQ2nLMQ3hD-89" source="PzlY1NgHu-uQ2nLMQ3hD-81" target="PzlY1NgHu-uQ2nLMQ3hD-82" edge="1">
          <mxGeometry relative="1" as="geometry" />
        </mxCell>
        <mxCell id="PzlY1NgHu-uQ2nLMQ3hD-90" value="Ex: #define origin 0x00" style="text;html=1;strokeColor=none;fillColor=none;align=center;verticalAlign=middle;whiteSpace=wrap;rounded=0;" parent="PzlY1NgHu-uQ2nLMQ3hD-92" vertex="1">
          <mxGeometry x="74" y="5" width="134" height="20" as="geometry" />
        </mxCell>
        <mxCell id="PzlY1NgHu-uQ2nLMQ3hD-102" value="" style="ellipse;fillColor=#000000;strokeColor=none;" parent="1" vertex="1">
          <mxGeometry x="890" y="230" width="30" height="30" as="geometry" />
        </mxCell>
        <mxCell id="PzlY1NgHu-uQ2nLMQ3hD-103" value="" style="shape=sumEllipse;perimeter=ellipsePerimeter;whiteSpace=wrap;html=1;backgroundOutline=1;" parent="1" vertex="1">
          <mxGeometry x="890" y="270" width="30" height="30" as="geometry" />
        </mxCell>
        <mxCell id="PzlY1NgHu-uQ2nLMQ3hD-114" value="" style="group" parent="1" vertex="1" connectable="0">
          <mxGeometry x="10" y="202.5" width="270" height="85" as="geometry" />
        </mxCell>
        <mxCell id="PzlY1NgHu-uQ2nLMQ3hD-111" value="" style="group" parent="PzlY1NgHu-uQ2nLMQ3hD-114" vertex="1" connectable="0">
          <mxGeometry x="10" y="45" width="250" height="30" as="geometry" />
        </mxCell>
        <mxCell id="PzlY1NgHu-uQ2nLMQ3hD-104" value="" style="ellipse;fillColor=#000000;strokeColor=none;" parent="PzlY1NgHu-uQ2nLMQ3hD-111" vertex="1">
          <mxGeometry width="30" height="30" as="geometry" />
        </mxCell>
        <mxCell id="PzlY1NgHu-uQ2nLMQ3hD-105" value="" style="shape=sumEllipse;perimeter=ellipsePerimeter;whiteSpace=wrap;html=1;backgroundOutline=1;" parent="PzlY1NgHu-uQ2nLMQ3hD-111" vertex="1">
          <mxGeometry x="220" width="30" height="30" as="geometry" />
        </mxCell>
        <mxCell id="PzlY1NgHu-uQ2nLMQ3hD-106" value="Identifier" style="ellipse;" parent="PzlY1NgHu-uQ2nLMQ3hD-111" vertex="1">
          <mxGeometry x="50" width="60" height="30" as="geometry" />
        </mxCell>
        <mxCell id="PzlY1NgHu-uQ2nLMQ3hD-108" style="edgeStyle=orthogonalEdgeStyle;rounded=1;orthogonalLoop=1;jettySize=auto;html=1;exitX=1;exitY=0.5;exitDx=0;exitDy=0;entryX=0;entryY=0.5;entryDx=0;entryDy=0;endArrow=classic;endFill=1;" parent="PzlY1NgHu-uQ2nLMQ3hD-111" source="PzlY1NgHu-uQ2nLMQ3hD-104" target="PzlY1NgHu-uQ2nLMQ3hD-106" edge="1">
          <mxGeometry relative="1" as="geometry" />
        </mxCell>
        <mxCell id="PzlY1NgHu-uQ2nLMQ3hD-110" style="edgeStyle=orthogonalEdgeStyle;rounded=1;orthogonalLoop=1;jettySize=auto;html=1;exitX=1;exitY=0.5;exitDx=0;exitDy=0;entryX=0;entryY=0.5;entryDx=0;entryDy=0;endArrow=classic;endFill=1;" parent="PzlY1NgHu-uQ2nLMQ3hD-111" source="PzlY1NgHu-uQ2nLMQ3hD-107" target="PzlY1NgHu-uQ2nLMQ3hD-105" edge="1">
          <mxGeometry relative="1" as="geometry" />
        </mxCell>
        <mxCell id="PzlY1NgHu-uQ2nLMQ3hD-107" value="Statement" style="html=1;align=center;verticalAlign=middle;rounded=1;absoluteArcSize=1;arcSize=10;dashed=0;" parent="PzlY1NgHu-uQ2nLMQ3hD-111" vertex="1">
          <mxGeometry x="130" width="70" height="30" as="geometry" />
        </mxCell>
        <mxCell id="PzlY1NgHu-uQ2nLMQ3hD-109" style="edgeStyle=orthogonalEdgeStyle;rounded=1;orthogonalLoop=1;jettySize=auto;html=1;exitX=1;exitY=0.5;exitDx=0;exitDy=0;entryX=0;entryY=0.5;entryDx=0;entryDy=0;endArrow=classic;endFill=1;" parent="PzlY1NgHu-uQ2nLMQ3hD-111" source="PzlY1NgHu-uQ2nLMQ3hD-106" target="PzlY1NgHu-uQ2nLMQ3hD-107" edge="1">
          <mxGeometry relative="1" as="geometry" />
        </mxCell>
        <mxCell id="PzlY1NgHu-uQ2nLMQ3hD-112" value="Ex: multCurrBy7{ *7 }" style="text;html=1;strokeColor=none;fillColor=none;align=center;verticalAlign=middle;whiteSpace=wrap;rounded=0;" parent="PzlY1NgHu-uQ2nLMQ3hD-114" vertex="1">
          <mxGeometry x="66" y="7" width="130" height="20" as="geometry" />
        </mxCell>
        <mxCell id="PzlY1NgHu-uQ2nLMQ3hD-113" value="Method" style="shape=umlFrame;whiteSpace=wrap;html=1;width=60;height=28;boundedLbl=1;verticalAlign=middle;align=left;spacingLeft=5;" parent="PzlY1NgHu-uQ2nLMQ3hD-114" vertex="1">
          <mxGeometry width="270" height="85" as="geometry" />
        </mxCell>
        <mxCell id="PzlY1NgHu-uQ2nLMQ3hD-165" value="" style="group" parent="1" vertex="1" connectable="0">
          <mxGeometry x="740" y="210" width="130" height="50" as="geometry" />
        </mxCell>
        <mxCell id="PzlY1NgHu-uQ2nLMQ3hD-60" style="edgeStyle=orthogonalEdgeStyle;orthogonalLoop=1;jettySize=auto;html=1;exitX=1;exitY=0.5;exitDx=0;exitDy=0;entryX=0;entryY=0.5;entryDx=0;entryDy=0;rounded=1;" parent="PzlY1NgHu-uQ2nLMQ3hD-165" target="PzlY1NgHu-uQ2nLMQ3hD-62" edge="1">
          <mxGeometry relative="1" as="geometry">
            <mxPoint y="1.1368683772161603e-13" as="sourcePoint" />
          </mxGeometry>
        </mxCell>
        <mxCell id="PzlY1NgHu-uQ2nLMQ3hD-61" style="edgeStyle=orthogonalEdgeStyle;orthogonalLoop=1;jettySize=auto;html=1;exitX=1;exitY=0.5;exitDx=0;exitDy=0;endArrow=none;endFill=0;rounded=1;" parent="PzlY1NgHu-uQ2nLMQ3hD-165" source="PzlY1NgHu-uQ2nLMQ3hD-62" edge="1">
          <mxGeometry relative="1" as="geometry">
            <mxPoint x="150" y="1.1368683772161603e-13" as="targetPoint" />
            <Array as="points">
              <mxPoint x="130" y="35" />
              <mxPoint x="130" />
            </Array>
          </mxGeometry>
        </mxCell>
        <mxCell id="PzlY1NgHu-uQ2nLMQ3hD-62" value="Statement" style="html=1;align=center;verticalAlign=middle;rounded=1;absoluteArcSize=1;arcSize=10;dashed=0;" parent="PzlY1NgHu-uQ2nLMQ3hD-165" vertex="1">
          <mxGeometry x="40" y="20" width="70" height="30" as="geometry" />
        </mxCell>
        <mxCell id="PzlY1NgHu-uQ2nLMQ3hD-63" style="edgeStyle=orthogonalEdgeStyle;orthogonalLoop=1;jettySize=auto;html=1;exitX=1;exitY=0.5;exitDx=0;exitDy=0;entryX=0;entryY=0.5;entryDx=0;entryDy=0;endArrow=none;endFill=0;rounded=1;" parent="PzlY1NgHu-uQ2nLMQ3hD-165" source="PzlY1NgHu-uQ2nLMQ3hD-62" target="PzlY1NgHu-uQ2nLMQ3hD-62" edge="1">
          <mxGeometry relative="1" as="geometry">
            <Array as="points">
              <mxPoint x="130" y="35" />
              <mxPoint x="130" y="10" />
              <mxPoint x="20" y="10" />
              <mxPoint x="20" y="35" />
            </Array>
          </mxGeometry>
        </mxCell>
        <mxCell id="PzlY1NgHu-uQ2nLMQ3hD-187" value="&quot;Else&quot;" style="text;html=1;align=center;verticalAlign=middle;dashed=0;fillColor=#ffffff;strokeColor=#000000;" parent="1" vertex="1">
          <mxGeometry x="710" y="172.5" width="50" height="30" as="geometry" />
        </mxCell>
        <mxCell id="PzlY1NgHu-uQ2nLMQ3hD-188" value="&quot;do&quot;" style="text;html=1;align=center;verticalAlign=middle;dashed=0;fillColor=#ffffff;strokeColor=#000000;" parent="1" vertex="1">
          <mxGeometry x="770" y="172.5" width="30" height="30" as="geometry" />
        </mxCell>
        <mxCell id="PzlY1NgHu-uQ2nLMQ3hD-189" value="&quot;?&quot;" style="text;html=1;align=center;verticalAlign=middle;dashed=0;fillColor=#ffffff;strokeColor=#000000;" parent="1" vertex="1">
          <mxGeometry x="810" y="172.5" width="30" height="30" as="geometry" />
        </mxCell>
        <mxCell id="PzlY1NgHu-uQ2nLMQ3hD-190" value="&quot;:&quot;" style="text;html=1;align=center;verticalAlign=middle;dashed=0;fillColor=#ffffff;strokeColor=#000000;" parent="1" vertex="1">
          <mxGeometry x="847.5" y="172.5" width="30" height="30" as="geometry" />
        </mxCell>
        <mxCell id="PzlY1NgHu-uQ2nLMQ3hD-219" value="Primary" style="html=1;align=center;verticalAlign=middle;rounded=1;absoluteArcSize=1;arcSize=10;dashed=0;" parent="1" vertex="1">
          <mxGeometry x="890" y="172.5" width="60" height="30" as="geometry" />
        </mxCell>
        <mxCell id="PzlY1NgHu-uQ2nLMQ3hD-225" value="" style="group" parent="1" vertex="1" connectable="0">
          <mxGeometry x="10" y="300" width="800" height="380" as="geometry" />
        </mxCell>
        <mxCell id="PzlY1NgHu-uQ2nLMQ3hD-224" value="Statement" style="shape=umlFrame;whiteSpace=wrap;html=1;width=80;height=30;boundedLbl=1;verticalAlign=middle;align=left;spacingLeft=5;" parent="PzlY1NgHu-uQ2nLMQ3hD-225" vertex="1">
          <mxGeometry width="800" height="380" as="geometry" />
        </mxCell>
        <mxCell id="PzlY1NgHu-uQ2nLMQ3hD-223" value="" style="group" parent="PzlY1NgHu-uQ2nLMQ3hD-225" vertex="1" connectable="0">
          <mxGeometry x="10" y="40" width="780" height="325" as="geometry" />
        </mxCell>
        <mxCell id="PzlY1NgHu-uQ2nLMQ3hD-115" value="" style="ellipse;fillColor=#000000;strokeColor=none;" parent="PzlY1NgHu-uQ2nLMQ3hD-223" vertex="1">
          <mxGeometry width="30" height="30" as="geometry" />
        </mxCell>
        <mxCell id="PzlY1NgHu-uQ2nLMQ3hD-116" value="" style="shape=sumEllipse;perimeter=ellipsePerimeter;whiteSpace=wrap;html=1;backgroundOutline=1;" parent="PzlY1NgHu-uQ2nLMQ3hD-223" vertex="1">
          <mxGeometry x="750" width="30" height="30" as="geometry" />
        </mxCell>
        <mxCell id="PzlY1NgHu-uQ2nLMQ3hD-127" style="edgeStyle=orthogonalEdgeStyle;rounded=1;orthogonalLoop=1;jettySize=auto;html=1;exitX=1;exitY=0.5;exitDx=0;exitDy=0;entryX=0;entryY=0.5;entryDx=0;entryDy=0;endArrow=classic;endFill=1;" parent="PzlY1NgHu-uQ2nLMQ3hD-223" source="PzlY1NgHu-uQ2nLMQ3hD-119" target="PzlY1NgHu-uQ2nLMQ3hD-116" edge="1">
          <mxGeometry relative="1" as="geometry" />
        </mxCell>
        <mxCell id="PzlY1NgHu-uQ2nLMQ3hD-155" style="edgeStyle=orthogonalEdgeStyle;rounded=1;orthogonalLoop=1;jettySize=auto;html=1;exitX=1;exitY=0.5;exitDx=0;exitDy=0;entryX=0;entryY=0.5;entryDx=0;entryDy=0;endArrow=classic;endFill=1;" parent="PzlY1NgHu-uQ2nLMQ3hD-223" source="PzlY1NgHu-uQ2nLMQ3hD-133" target="PzlY1NgHu-uQ2nLMQ3hD-116" edge="1">
          <mxGeometry relative="1" as="geometry">
            <Array as="points">
              <mxPoint x="570" y="195" />
              <mxPoint x="570" y="15" />
            </Array>
          </mxGeometry>
        </mxCell>
        <mxCell id="PzlY1NgHu-uQ2nLMQ3hD-148" style="edgeStyle=orthogonalEdgeStyle;rounded=1;orthogonalLoop=1;jettySize=auto;html=1;exitX=1;exitY=0.5;exitDx=0;exitDy=0;entryX=0;entryY=0.5;entryDx=0;entryDy=0;endArrow=classic;endFill=1;" parent="PzlY1NgHu-uQ2nLMQ3hD-223" source="PzlY1NgHu-uQ2nLMQ3hD-145" target="PzlY1NgHu-uQ2nLMQ3hD-116" edge="1">
          <mxGeometry relative="1" as="geometry">
            <Array as="points">
              <mxPoint x="390" y="115" />
              <mxPoint x="390" y="15" />
            </Array>
          </mxGeometry>
        </mxCell>
        <mxCell id="PzlY1NgHu-uQ2nLMQ3hD-154" style="edgeStyle=orthogonalEdgeStyle;rounded=1;orthogonalLoop=1;jettySize=auto;html=1;exitX=1;exitY=0.5;exitDx=0;exitDy=0;entryX=0;entryY=0.5;entryDx=0;entryDy=0;endArrow=classic;endFill=1;" parent="PzlY1NgHu-uQ2nLMQ3hD-223" source="PzlY1NgHu-uQ2nLMQ3hD-152" target="PzlY1NgHu-uQ2nLMQ3hD-116" edge="1">
          <mxGeometry relative="1" as="geometry">
            <Array as="points">
              <mxPoint x="570" y="115" />
              <mxPoint x="570" y="15" />
            </Array>
          </mxGeometry>
        </mxCell>
        <mxCell id="PzlY1NgHu-uQ2nLMQ3hD-156" value="" style="group" parent="PzlY1NgHu-uQ2nLMQ3hD-223" vertex="1" connectable="0">
          <mxGeometry x="60" width="210" height="65" as="geometry" />
        </mxCell>
        <mxCell id="PzlY1NgHu-uQ2nLMQ3hD-118" value="&quot;{&quot;" style="text;html=1;align=center;verticalAlign=middle;dashed=0;fillColor=#ffffff;strokeColor=#000000;" parent="PzlY1NgHu-uQ2nLMQ3hD-156" vertex="1">
          <mxGeometry width="30" height="30" as="geometry" />
        </mxCell>
        <mxCell id="PzlY1NgHu-uQ2nLMQ3hD-119" value="&quot;}&quot;" style="text;html=1;align=center;verticalAlign=middle;dashed=0;fillColor=#ffffff;strokeColor=#000000;" parent="PzlY1NgHu-uQ2nLMQ3hD-156" vertex="1">
          <mxGeometry x="180" width="30" height="30" as="geometry" />
        </mxCell>
        <mxCell id="PzlY1NgHu-uQ2nLMQ3hD-125" style="edgeStyle=orthogonalEdgeStyle;rounded=1;orthogonalLoop=1;jettySize=auto;html=1;exitX=1;exitY=0.5;exitDx=0;exitDy=0;entryX=0;entryY=0.5;entryDx=0;entryDy=0;endArrow=classic;endFill=1;" parent="PzlY1NgHu-uQ2nLMQ3hD-156" source="PzlY1NgHu-uQ2nLMQ3hD-118" target="PzlY1NgHu-uQ2nLMQ3hD-119" edge="1">
          <mxGeometry relative="1" as="geometry" />
        </mxCell>
        <mxCell id="PzlY1NgHu-uQ2nLMQ3hD-120" value="" style="group" parent="PzlY1NgHu-uQ2nLMQ3hD-156" vertex="1" connectable="0">
          <mxGeometry x="30" y="15" width="130" height="50" as="geometry" />
        </mxCell>
        <mxCell id="PzlY1NgHu-uQ2nLMQ3hD-121" style="edgeStyle=orthogonalEdgeStyle;orthogonalLoop=1;jettySize=auto;html=1;exitX=1;exitY=0.5;exitDx=0;exitDy=0;entryX=0;entryY=0.5;entryDx=0;entryDy=0;rounded=1;" parent="PzlY1NgHu-uQ2nLMQ3hD-120" target="PzlY1NgHu-uQ2nLMQ3hD-123" edge="1">
          <mxGeometry relative="1" as="geometry">
            <mxPoint y="1.1368683772161603e-13" as="sourcePoint" />
          </mxGeometry>
        </mxCell>
        <mxCell id="PzlY1NgHu-uQ2nLMQ3hD-122" style="edgeStyle=orthogonalEdgeStyle;orthogonalLoop=1;jettySize=auto;html=1;exitX=1;exitY=0.5;exitDx=0;exitDy=0;endArrow=none;endFill=0;rounded=1;" parent="PzlY1NgHu-uQ2nLMQ3hD-120" source="PzlY1NgHu-uQ2nLMQ3hD-123" edge="1">
          <mxGeometry relative="1" as="geometry">
            <mxPoint x="150" y="1.1368683772161603e-13" as="targetPoint" />
            <Array as="points">
              <mxPoint x="130" y="35" />
              <mxPoint x="130" />
            </Array>
          </mxGeometry>
        </mxCell>
        <mxCell id="PzlY1NgHu-uQ2nLMQ3hD-123" value="Statement" style="html=1;align=center;verticalAlign=middle;rounded=1;absoluteArcSize=1;arcSize=10;dashed=0;" parent="PzlY1NgHu-uQ2nLMQ3hD-120" vertex="1">
          <mxGeometry x="40" y="20" width="70" height="30" as="geometry" />
        </mxCell>
        <mxCell id="PzlY1NgHu-uQ2nLMQ3hD-124" style="edgeStyle=orthogonalEdgeStyle;orthogonalLoop=1;jettySize=auto;html=1;exitX=1;exitY=0.5;exitDx=0;exitDy=0;entryX=0;entryY=0.5;entryDx=0;entryDy=0;endArrow=none;endFill=0;rounded=1;" parent="PzlY1NgHu-uQ2nLMQ3hD-120" source="PzlY1NgHu-uQ2nLMQ3hD-123" target="PzlY1NgHu-uQ2nLMQ3hD-123" edge="1">
          <mxGeometry relative="1" as="geometry">
            <Array as="points">
              <mxPoint x="130" y="35" />
              <mxPoint x="130" y="10" />
              <mxPoint x="20" y="10" />
              <mxPoint x="20" y="35" />
            </Array>
          </mxGeometry>
        </mxCell>
        <mxCell id="PzlY1NgHu-uQ2nLMQ3hD-126" style="edgeStyle=orthogonalEdgeStyle;rounded=1;orthogonalLoop=1;jettySize=auto;html=1;exitX=1;exitY=0.5;exitDx=0;exitDy=0;entryX=0;entryY=0.5;entryDx=0;entryDy=0;endArrow=classic;endFill=1;" parent="PzlY1NgHu-uQ2nLMQ3hD-223" source="PzlY1NgHu-uQ2nLMQ3hD-115" target="PzlY1NgHu-uQ2nLMQ3hD-118" edge="1">
          <mxGeometry relative="1" as="geometry" />
        </mxCell>
        <mxCell id="PzlY1NgHu-uQ2nLMQ3hD-157" value="" style="group" parent="PzlY1NgHu-uQ2nLMQ3hD-223" vertex="1" connectable="0">
          <mxGeometry x="60" y="100" width="490" height="30" as="geometry" />
        </mxCell>
        <mxCell id="PzlY1NgHu-uQ2nLMQ3hD-131" value="&quot;if&quot;" style="text;html=1;align=center;verticalAlign=middle;dashed=0;fillColor=#ffffff;strokeColor=#000000;" parent="PzlY1NgHu-uQ2nLMQ3hD-157" vertex="1">
          <mxGeometry width="30" height="30" as="geometry" />
        </mxCell>
        <mxCell id="PzlY1NgHu-uQ2nLMQ3hD-140" value="Expression" style="html=1;align=center;verticalAlign=middle;rounded=1;absoluteArcSize=1;arcSize=10;dashed=0;" parent="PzlY1NgHu-uQ2nLMQ3hD-157" vertex="1">
          <mxGeometry x="100" width="70" height="30" as="geometry" />
        </mxCell>
        <mxCell id="PzlY1NgHu-uQ2nLMQ3hD-141" style="edgeStyle=orthogonalEdgeStyle;rounded=1;orthogonalLoop=1;jettySize=auto;html=1;exitX=1;exitY=0.5;exitDx=0;exitDy=0;entryX=0;entryY=0.5;entryDx=0;entryDy=0;endArrow=classic;endFill=1;" parent="PzlY1NgHu-uQ2nLMQ3hD-157" source="PzlY1NgHu-uQ2nLMQ3hD-142" target="PzlY1NgHu-uQ2nLMQ3hD-140" edge="1">
          <mxGeometry relative="1" as="geometry" />
        </mxCell>
        <mxCell id="PzlY1NgHu-uQ2nLMQ3hD-142" value="&quot;(&quot;" style="text;html=1;align=center;verticalAlign=middle;dashed=0;fillColor=#ffffff;strokeColor=#000000;" parent="PzlY1NgHu-uQ2nLMQ3hD-157" vertex="1">
          <mxGeometry x="50" width="30" height="30" as="geometry" />
        </mxCell>
        <mxCell id="PzlY1NgHu-uQ2nLMQ3hD-146" style="edgeStyle=orthogonalEdgeStyle;rounded=1;orthogonalLoop=1;jettySize=auto;html=1;exitX=1;exitY=0.5;exitDx=0;exitDy=0;entryX=0;entryY=0.5;entryDx=0;entryDy=0;endArrow=classic;endFill=1;" parent="PzlY1NgHu-uQ2nLMQ3hD-157" source="PzlY1NgHu-uQ2nLMQ3hD-131" target="PzlY1NgHu-uQ2nLMQ3hD-142" edge="1">
          <mxGeometry relative="1" as="geometry" />
        </mxCell>
        <mxCell id="PzlY1NgHu-uQ2nLMQ3hD-144" value="&quot;)&quot;" style="text;html=1;align=center;verticalAlign=middle;dashed=0;fillColor=#ffffff;strokeColor=#000000;" parent="PzlY1NgHu-uQ2nLMQ3hD-157" vertex="1">
          <mxGeometry x="190" width="30" height="30" as="geometry" />
        </mxCell>
        <mxCell id="PzlY1NgHu-uQ2nLMQ3hD-139" style="edgeStyle=orthogonalEdgeStyle;rounded=1;orthogonalLoop=1;jettySize=auto;html=1;exitX=1;exitY=0.5;exitDx=0;exitDy=0;entryX=0;entryY=0.5;entryDx=0;entryDy=0;endArrow=classic;endFill=1;" parent="PzlY1NgHu-uQ2nLMQ3hD-157" source="PzlY1NgHu-uQ2nLMQ3hD-140" target="PzlY1NgHu-uQ2nLMQ3hD-144" edge="1">
          <mxGeometry relative="1" as="geometry" />
        </mxCell>
        <mxCell id="PzlY1NgHu-uQ2nLMQ3hD-145" value="Statement" style="html=1;align=center;verticalAlign=middle;rounded=1;absoluteArcSize=1;arcSize=10;dashed=0;" parent="PzlY1NgHu-uQ2nLMQ3hD-157" vertex="1">
          <mxGeometry x="244" width="70" height="30" as="geometry" />
        </mxCell>
        <mxCell id="PzlY1NgHu-uQ2nLMQ3hD-143" style="edgeStyle=orthogonalEdgeStyle;rounded=1;orthogonalLoop=1;jettySize=auto;html=1;exitX=1;exitY=0.5;exitDx=0;exitDy=0;entryX=0;entryY=0.5;entryDx=0;entryDy=0;endArrow=classic;endFill=1;" parent="PzlY1NgHu-uQ2nLMQ3hD-157" source="PzlY1NgHu-uQ2nLMQ3hD-144" target="PzlY1NgHu-uQ2nLMQ3hD-145" edge="1">
          <mxGeometry relative="1" as="geometry" />
        </mxCell>
        <mxCell id="PzlY1NgHu-uQ2nLMQ3hD-147" value="&quot;Else&quot;" style="text;html=1;align=center;verticalAlign=middle;dashed=0;fillColor=#ffffff;strokeColor=#000000;" parent="PzlY1NgHu-uQ2nLMQ3hD-157" vertex="1">
          <mxGeometry x="350" width="50" height="30" as="geometry" />
        </mxCell>
        <mxCell id="PzlY1NgHu-uQ2nLMQ3hD-149" style="edgeStyle=orthogonalEdgeStyle;rounded=1;orthogonalLoop=1;jettySize=auto;html=1;exitX=1;exitY=0.5;exitDx=0;exitDy=0;entryX=0;entryY=0.5;entryDx=0;entryDy=0;endArrow=classic;endFill=1;" parent="PzlY1NgHu-uQ2nLMQ3hD-157" source="PzlY1NgHu-uQ2nLMQ3hD-145" target="PzlY1NgHu-uQ2nLMQ3hD-147" edge="1">
          <mxGeometry relative="1" as="geometry" />
        </mxCell>
        <mxCell id="PzlY1NgHu-uQ2nLMQ3hD-152" value="Statement" style="html=1;align=center;verticalAlign=middle;rounded=1;absoluteArcSize=1;arcSize=10;dashed=0;" parent="PzlY1NgHu-uQ2nLMQ3hD-157" vertex="1">
          <mxGeometry x="420" width="70" height="30" as="geometry" />
        </mxCell>
        <mxCell id="PzlY1NgHu-uQ2nLMQ3hD-153" style="edgeStyle=orthogonalEdgeStyle;rounded=1;orthogonalLoop=1;jettySize=auto;html=1;exitX=1;exitY=0.5;exitDx=0;exitDy=0;entryX=0;entryY=0.5;entryDx=0;entryDy=0;endArrow=classic;endFill=1;" parent="PzlY1NgHu-uQ2nLMQ3hD-157" source="PzlY1NgHu-uQ2nLMQ3hD-147" target="PzlY1NgHu-uQ2nLMQ3hD-152" edge="1">
          <mxGeometry relative="1" as="geometry" />
        </mxCell>
        <mxCell id="PzlY1NgHu-uQ2nLMQ3hD-150" style="edgeStyle=orthogonalEdgeStyle;rounded=1;orthogonalLoop=1;jettySize=auto;html=1;exitX=1;exitY=0.5;exitDx=0;exitDy=0;entryX=0;entryY=0.5;entryDx=0;entryDy=0;endArrow=classic;endFill=1;" parent="PzlY1NgHu-uQ2nLMQ3hD-223" source="PzlY1NgHu-uQ2nLMQ3hD-115" target="PzlY1NgHu-uQ2nLMQ3hD-131" edge="1">
          <mxGeometry relative="1" as="geometry">
            <Array as="points">
              <mxPoint x="40" y="15" />
              <mxPoint x="40" y="115" />
            </Array>
          </mxGeometry>
        </mxCell>
        <mxCell id="PzlY1NgHu-uQ2nLMQ3hD-158" value="" style="group" parent="PzlY1NgHu-uQ2nLMQ3hD-223" vertex="1" connectable="0">
          <mxGeometry x="60" y="180" width="334" height="30" as="geometry" />
        </mxCell>
        <mxCell id="PzlY1NgHu-uQ2nLMQ3hD-128" value="Expression" style="html=1;align=center;verticalAlign=middle;rounded=1;absoluteArcSize=1;arcSize=10;dashed=0;" parent="PzlY1NgHu-uQ2nLMQ3hD-158" vertex="1">
          <mxGeometry x="120" width="70" height="30" as="geometry" />
        </mxCell>
        <mxCell id="PzlY1NgHu-uQ2nLMQ3hD-136" style="edgeStyle=orthogonalEdgeStyle;rounded=1;orthogonalLoop=1;jettySize=auto;html=1;exitX=1;exitY=0.5;exitDx=0;exitDy=0;entryX=0;entryY=0.5;entryDx=0;entryDy=0;endArrow=classic;endFill=1;" parent="PzlY1NgHu-uQ2nLMQ3hD-158" source="PzlY1NgHu-uQ2nLMQ3hD-129" target="PzlY1NgHu-uQ2nLMQ3hD-128" edge="1">
          <mxGeometry relative="1" as="geometry" />
        </mxCell>
        <mxCell id="PzlY1NgHu-uQ2nLMQ3hD-129" value="&quot;(&quot;" style="text;html=1;align=center;verticalAlign=middle;dashed=0;fillColor=#ffffff;strokeColor=#000000;" parent="PzlY1NgHu-uQ2nLMQ3hD-158" vertex="1">
          <mxGeometry x="70" width="30" height="30" as="geometry" />
        </mxCell>
        <mxCell id="PzlY1NgHu-uQ2nLMQ3hD-130" value="&quot;)&quot;" style="text;html=1;align=center;verticalAlign=middle;dashed=0;fillColor=#ffffff;strokeColor=#000000;" parent="PzlY1NgHu-uQ2nLMQ3hD-158" vertex="1">
          <mxGeometry x="210" width="30" height="30" as="geometry" />
        </mxCell>
        <mxCell id="PzlY1NgHu-uQ2nLMQ3hD-137" style="edgeStyle=orthogonalEdgeStyle;rounded=1;orthogonalLoop=1;jettySize=auto;html=1;exitX=1;exitY=0.5;exitDx=0;exitDy=0;entryX=0;entryY=0.5;entryDx=0;entryDy=0;endArrow=classic;endFill=1;" parent="PzlY1NgHu-uQ2nLMQ3hD-158" source="PzlY1NgHu-uQ2nLMQ3hD-128" target="PzlY1NgHu-uQ2nLMQ3hD-130" edge="1">
          <mxGeometry relative="1" as="geometry" />
        </mxCell>
        <mxCell id="PzlY1NgHu-uQ2nLMQ3hD-135" style="edgeStyle=orthogonalEdgeStyle;rounded=1;orthogonalLoop=1;jettySize=auto;html=1;exitX=1;exitY=0.5;exitDx=0;exitDy=0;endArrow=classic;endFill=1;entryX=0;entryY=0.5;entryDx=0;entryDy=0;" parent="PzlY1NgHu-uQ2nLMQ3hD-158" source="PzlY1NgHu-uQ2nLMQ3hD-132" target="PzlY1NgHu-uQ2nLMQ3hD-129" edge="1">
          <mxGeometry relative="1" as="geometry">
            <mxPoint x="70" y="30" as="targetPoint" />
            <Array as="points">
              <mxPoint x="60" y="15" />
              <mxPoint x="60" y="15" />
            </Array>
          </mxGeometry>
        </mxCell>
        <mxCell id="PzlY1NgHu-uQ2nLMQ3hD-132" value="&quot;while&quot;" style="text;html=1;align=center;verticalAlign=middle;dashed=0;fillColor=#ffffff;strokeColor=#000000;" parent="PzlY1NgHu-uQ2nLMQ3hD-158" vertex="1">
          <mxGeometry width="50" height="30" as="geometry" />
        </mxCell>
        <mxCell id="PzlY1NgHu-uQ2nLMQ3hD-133" value="Statement" style="html=1;align=center;verticalAlign=middle;rounded=1;absoluteArcSize=1;arcSize=10;dashed=0;" parent="PzlY1NgHu-uQ2nLMQ3hD-158" vertex="1">
          <mxGeometry x="264" width="70" height="30" as="geometry" />
        </mxCell>
        <mxCell id="PzlY1NgHu-uQ2nLMQ3hD-138" style="edgeStyle=orthogonalEdgeStyle;rounded=1;orthogonalLoop=1;jettySize=auto;html=1;exitX=1;exitY=0.5;exitDx=0;exitDy=0;entryX=0;entryY=0.5;entryDx=0;entryDy=0;endArrow=classic;endFill=1;" parent="PzlY1NgHu-uQ2nLMQ3hD-158" source="PzlY1NgHu-uQ2nLMQ3hD-130" target="PzlY1NgHu-uQ2nLMQ3hD-133" edge="1">
          <mxGeometry relative="1" as="geometry" />
        </mxCell>
        <mxCell id="PzlY1NgHu-uQ2nLMQ3hD-183" style="edgeStyle=orthogonalEdgeStyle;rounded=1;orthogonalLoop=1;jettySize=auto;html=1;exitX=1;exitY=0.5;exitDx=0;exitDy=0;entryX=0;entryY=0.5;entryDx=0;entryDy=0;endArrow=classic;endFill=1;" parent="PzlY1NgHu-uQ2nLMQ3hD-223" source="PzlY1NgHu-uQ2nLMQ3hD-115" target="PzlY1NgHu-uQ2nLMQ3hD-132" edge="1">
          <mxGeometry relative="1" as="geometry">
            <Array as="points">
              <mxPoint x="40" y="15" />
              <mxPoint x="40" y="195" />
            </Array>
          </mxGeometry>
        </mxCell>
        <mxCell id="PzlY1NgHu-uQ2nLMQ3hD-184" style="edgeStyle=orthogonalEdgeStyle;rounded=1;orthogonalLoop=1;jettySize=auto;html=1;exitX=1;exitY=0.5;exitDx=0;exitDy=0;entryX=0;entryY=0.5;entryDx=0;entryDy=0;endArrow=classic;endFill=1;" parent="PzlY1NgHu-uQ2nLMQ3hD-223" source="PzlY1NgHu-uQ2nLMQ3hD-160" target="PzlY1NgHu-uQ2nLMQ3hD-116" edge="1">
          <mxGeometry relative="1" as="geometry">
            <Array as="points">
              <mxPoint x="730" y="275" />
              <mxPoint x="730" y="15" />
            </Array>
          </mxGeometry>
        </mxCell>
        <mxCell id="PzlY1NgHu-uQ2nLMQ3hD-186" value="" style="group" parent="PzlY1NgHu-uQ2nLMQ3hD-223" vertex="1" connectable="0">
          <mxGeometry x="60" y="260" width="680" height="65" as="geometry" />
        </mxCell>
        <mxCell id="PzlY1NgHu-uQ2nLMQ3hD-159" value="Expression" style="html=1;align=center;verticalAlign=middle;rounded=1;absoluteArcSize=1;arcSize=10;dashed=0;" parent="PzlY1NgHu-uQ2nLMQ3hD-186" vertex="1">
          <mxGeometry x="280" width="70" height="30" as="geometry" />
        </mxCell>
        <mxCell id="PzlY1NgHu-uQ2nLMQ3hD-160" value="Statement" style="html=1;align=center;verticalAlign=middle;rounded=1;absoluteArcSize=1;arcSize=10;dashed=0;" parent="PzlY1NgHu-uQ2nLMQ3hD-186" vertex="1">
          <mxGeometry x="590" width="70" height="30" as="geometry" />
        </mxCell>
        <mxCell id="PzlY1NgHu-uQ2nLMQ3hD-161" value="&quot;(&quot;" style="text;html=1;align=center;verticalAlign=middle;dashed=0;fillColor=#ffffff;strokeColor=#000000;" parent="PzlY1NgHu-uQ2nLMQ3hD-186" vertex="1">
          <mxGeometry x="60" width="30" height="30" as="geometry" />
        </mxCell>
        <mxCell id="PzlY1NgHu-uQ2nLMQ3hD-182" style="edgeStyle=orthogonalEdgeStyle;rounded=1;orthogonalLoop=1;jettySize=auto;html=1;exitX=1;exitY=0.5;exitDx=0;exitDy=0;entryX=0;entryY=0.5;entryDx=0;entryDy=0;endArrow=classic;endFill=1;" parent="PzlY1NgHu-uQ2nLMQ3hD-186" source="PzlY1NgHu-uQ2nLMQ3hD-162" target="PzlY1NgHu-uQ2nLMQ3hD-160" edge="1">
          <mxGeometry relative="1" as="geometry" />
        </mxCell>
        <mxCell id="PzlY1NgHu-uQ2nLMQ3hD-162" value="&quot;)&quot;" style="text;html=1;align=center;verticalAlign=middle;dashed=0;fillColor=#ffffff;strokeColor=#000000;" parent="PzlY1NgHu-uQ2nLMQ3hD-186" vertex="1">
          <mxGeometry x="540" width="30" height="30" as="geometry" />
        </mxCell>
        <mxCell id="PzlY1NgHu-uQ2nLMQ3hD-179" style="edgeStyle=orthogonalEdgeStyle;rounded=1;orthogonalLoop=1;jettySize=auto;html=1;exitX=1;exitY=0.5;exitDx=0;exitDy=0;entryX=0;entryY=0.5;entryDx=0;entryDy=0;endArrow=classic;endFill=1;" parent="PzlY1NgHu-uQ2nLMQ3hD-186" source="PzlY1NgHu-uQ2nLMQ3hD-163" target="PzlY1NgHu-uQ2nLMQ3hD-159" edge="1">
          <mxGeometry relative="1" as="geometry" />
        </mxCell>
        <mxCell id="PzlY1NgHu-uQ2nLMQ3hD-163" value="&quot;;&quot;" style="text;html=1;align=center;verticalAlign=middle;dashed=0;fillColor=#ffffff;strokeColor=#000000;" parent="PzlY1NgHu-uQ2nLMQ3hD-186" vertex="1">
          <mxGeometry x="230" width="30" height="30" as="geometry" />
        </mxCell>
        <mxCell id="PzlY1NgHu-uQ2nLMQ3hD-178" style="edgeStyle=orthogonalEdgeStyle;rounded=1;orthogonalLoop=1;jettySize=auto;html=1;exitX=1;exitY=0.5;exitDx=0;exitDy=0;entryX=0;entryY=0.5;entryDx=0;entryDy=0;endArrow=classic;endFill=1;" parent="PzlY1NgHu-uQ2nLMQ3hD-186" source="PzlY1NgHu-uQ2nLMQ3hD-161" target="PzlY1NgHu-uQ2nLMQ3hD-163" edge="1">
          <mxGeometry relative="1" as="geometry" />
        </mxCell>
        <mxCell id="PzlY1NgHu-uQ2nLMQ3hD-177" style="edgeStyle=orthogonalEdgeStyle;rounded=1;orthogonalLoop=1;jettySize=auto;html=1;exitX=1;exitY=0.5;exitDx=0;exitDy=0;entryX=0;entryY=0.5;entryDx=0;entryDy=0;endArrow=classic;endFill=1;" parent="PzlY1NgHu-uQ2nLMQ3hD-186" source="PzlY1NgHu-uQ2nLMQ3hD-164" target="PzlY1NgHu-uQ2nLMQ3hD-161" edge="1">
          <mxGeometry relative="1" as="geometry" />
        </mxCell>
        <mxCell id="PzlY1NgHu-uQ2nLMQ3hD-164" value="&quot;for&quot;" style="text;html=1;align=center;verticalAlign=middle;dashed=0;fillColor=#ffffff;strokeColor=#000000;" parent="PzlY1NgHu-uQ2nLMQ3hD-186" vertex="1">
          <mxGeometry width="40" height="30" as="geometry" />
        </mxCell>
        <mxCell id="PzlY1NgHu-uQ2nLMQ3hD-166" value="" style="group" parent="PzlY1NgHu-uQ2nLMQ3hD-186" vertex="1" connectable="0">
          <mxGeometry x="90" y="15" width="130" height="50" as="geometry" />
        </mxCell>
        <mxCell id="PzlY1NgHu-uQ2nLMQ3hD-167" style="edgeStyle=orthogonalEdgeStyle;orthogonalLoop=1;jettySize=auto;html=1;exitX=1;exitY=0.5;exitDx=0;exitDy=0;entryX=0;entryY=0.5;entryDx=0;entryDy=0;rounded=1;" parent="PzlY1NgHu-uQ2nLMQ3hD-166" target="PzlY1NgHu-uQ2nLMQ3hD-169" edge="1">
          <mxGeometry relative="1" as="geometry">
            <mxPoint y="1.1368683772161603e-13" as="sourcePoint" />
          </mxGeometry>
        </mxCell>
        <mxCell id="PzlY1NgHu-uQ2nLMQ3hD-168" style="edgeStyle=orthogonalEdgeStyle;orthogonalLoop=1;jettySize=auto;html=1;exitX=1;exitY=0.5;exitDx=0;exitDy=0;endArrow=none;endFill=0;rounded=1;" parent="PzlY1NgHu-uQ2nLMQ3hD-166" source="PzlY1NgHu-uQ2nLMQ3hD-169" edge="1">
          <mxGeometry relative="1" as="geometry">
            <mxPoint x="140" as="targetPoint" />
            <Array as="points">
              <mxPoint x="120" y="35" />
              <mxPoint x="120" />
            </Array>
          </mxGeometry>
        </mxCell>
        <mxCell id="PzlY1NgHu-uQ2nLMQ3hD-169" value="Primary" style="html=1;align=center;verticalAlign=middle;rounded=1;absoluteArcSize=1;arcSize=10;dashed=0;" parent="PzlY1NgHu-uQ2nLMQ3hD-166" vertex="1">
          <mxGeometry x="40" y="20" width="60" height="30" as="geometry" />
        </mxCell>
        <mxCell id="PzlY1NgHu-uQ2nLMQ3hD-170" style="edgeStyle=orthogonalEdgeStyle;orthogonalLoop=1;jettySize=auto;html=1;exitX=1;exitY=0.5;exitDx=0;exitDy=0;entryX=0;entryY=0.5;entryDx=0;entryDy=0;endArrow=none;endFill=0;rounded=1;" parent="PzlY1NgHu-uQ2nLMQ3hD-166" source="PzlY1NgHu-uQ2nLMQ3hD-169" target="PzlY1NgHu-uQ2nLMQ3hD-169" edge="1">
          <mxGeometry relative="1" as="geometry">
            <Array as="points">
              <mxPoint x="120" y="35" />
              <mxPoint x="120" y="10" />
              <mxPoint x="20" y="10" />
              <mxPoint x="20" y="35" />
            </Array>
          </mxGeometry>
        </mxCell>
        <mxCell id="PzlY1NgHu-uQ2nLMQ3hD-181" style="edgeStyle=orthogonalEdgeStyle;rounded=1;orthogonalLoop=1;jettySize=auto;html=1;exitX=1;exitY=0.5;exitDx=0;exitDy=0;entryX=0;entryY=0.5;entryDx=0;entryDy=0;endArrow=classic;endFill=1;" parent="PzlY1NgHu-uQ2nLMQ3hD-186" source="PzlY1NgHu-uQ2nLMQ3hD-171" target="PzlY1NgHu-uQ2nLMQ3hD-162" edge="1">
          <mxGeometry relative="1" as="geometry" />
        </mxCell>
        <mxCell id="PzlY1NgHu-uQ2nLMQ3hD-171" value="&quot;;&quot;" style="text;html=1;align=center;verticalAlign=middle;dashed=0;fillColor=#ffffff;strokeColor=#000000;" parent="PzlY1NgHu-uQ2nLMQ3hD-186" vertex="1">
          <mxGeometry x="370" width="30" height="30" as="geometry" />
        </mxCell>
        <mxCell id="PzlY1NgHu-uQ2nLMQ3hD-180" style="edgeStyle=orthogonalEdgeStyle;rounded=1;orthogonalLoop=1;jettySize=auto;html=1;exitX=1;exitY=0.5;exitDx=0;exitDy=0;entryX=0;entryY=0.5;entryDx=0;entryDy=0;endArrow=classic;endFill=1;" parent="PzlY1NgHu-uQ2nLMQ3hD-186" source="PzlY1NgHu-uQ2nLMQ3hD-159" target="PzlY1NgHu-uQ2nLMQ3hD-171" edge="1">
          <mxGeometry relative="1" as="geometry" />
        </mxCell>
        <mxCell id="PzlY1NgHu-uQ2nLMQ3hD-172" value="" style="group" parent="PzlY1NgHu-uQ2nLMQ3hD-186" vertex="1" connectable="0">
          <mxGeometry x="400" y="15" width="130" height="50" as="geometry" />
        </mxCell>
        <mxCell id="PzlY1NgHu-uQ2nLMQ3hD-173" style="edgeStyle=orthogonalEdgeStyle;orthogonalLoop=1;jettySize=auto;html=1;exitX=1;exitY=0.5;exitDx=0;exitDy=0;entryX=0;entryY=0.5;entryDx=0;entryDy=0;rounded=1;" parent="PzlY1NgHu-uQ2nLMQ3hD-172" target="PzlY1NgHu-uQ2nLMQ3hD-175" edge="1">
          <mxGeometry relative="1" as="geometry">
            <mxPoint y="1.1368683772161603e-13" as="sourcePoint" />
          </mxGeometry>
        </mxCell>
        <mxCell id="PzlY1NgHu-uQ2nLMQ3hD-175" value="Primary" style="html=1;align=center;verticalAlign=middle;rounded=1;absoluteArcSize=1;arcSize=10;dashed=0;" parent="PzlY1NgHu-uQ2nLMQ3hD-172" vertex="1">
          <mxGeometry x="40" y="20" width="60" height="30" as="geometry" />
        </mxCell>
        <mxCell id="PzlY1NgHu-uQ2nLMQ3hD-176" style="edgeStyle=orthogonalEdgeStyle;orthogonalLoop=1;jettySize=auto;html=1;exitX=1;exitY=0.5;exitDx=0;exitDy=0;entryX=0;entryY=0.5;entryDx=0;entryDy=0;endArrow=none;endFill=0;rounded=1;" parent="PzlY1NgHu-uQ2nLMQ3hD-172" source="PzlY1NgHu-uQ2nLMQ3hD-175" target="PzlY1NgHu-uQ2nLMQ3hD-175" edge="1">
          <mxGeometry relative="1" as="geometry">
            <Array as="points">
              <mxPoint x="120" y="35" />
              <mxPoint x="120" y="10" />
              <mxPoint x="20" y="10" />
              <mxPoint x="20" y="35" />
            </Array>
          </mxGeometry>
        </mxCell>
        <mxCell id="PzlY1NgHu-uQ2nLMQ3hD-174" style="edgeStyle=orthogonalEdgeStyle;orthogonalLoop=1;jettySize=auto;html=1;exitX=1;exitY=0.5;exitDx=0;exitDy=0;endArrow=none;endFill=0;rounded=1;entryX=0;entryY=0.5;entryDx=0;entryDy=0;" parent="PzlY1NgHu-uQ2nLMQ3hD-186" source="PzlY1NgHu-uQ2nLMQ3hD-175" target="PzlY1NgHu-uQ2nLMQ3hD-162" edge="1">
          <mxGeometry relative="1" as="geometry">
            <mxPoint x="550" y="15.000000000000114" as="targetPoint" />
            <Array as="points">
              <mxPoint x="520" y="50" />
              <mxPoint x="520" y="15" />
            </Array>
          </mxGeometry>
        </mxCell>
        <mxCell id="PzlY1NgHu-uQ2nLMQ3hD-185" style="edgeStyle=orthogonalEdgeStyle;rounded=1;orthogonalLoop=1;jettySize=auto;html=1;exitX=1;exitY=0.5;exitDx=0;exitDy=0;entryX=0;entryY=0.5;entryDx=0;entryDy=0;endArrow=classic;endFill=1;" parent="PzlY1NgHu-uQ2nLMQ3hD-223" source="PzlY1NgHu-uQ2nLMQ3hD-115" target="PzlY1NgHu-uQ2nLMQ3hD-164" edge="1">
          <mxGeometry relative="1" as="geometry">
            <Array as="points">
              <mxPoint x="40" y="15" />
              <mxPoint x="40" y="275" />
            </Array>
          </mxGeometry>
        </mxCell>
        <mxCell id="PzlY1NgHu-uQ2nLMQ3hD-204" style="edgeStyle=orthogonalEdgeStyle;rounded=1;orthogonalLoop=1;jettySize=auto;html=1;exitX=1;exitY=0.5;exitDx=0;exitDy=0;entryX=0;entryY=0.5;entryDx=0;entryDy=0;endArrow=classic;endFill=1;" parent="PzlY1NgHu-uQ2nLMQ3hD-223" source="PzlY1NgHu-uQ2nLMQ3hD-196" target="PzlY1NgHu-uQ2nLMQ3hD-116" edge="1">
          <mxGeometry relative="1" as="geometry">
            <Array as="points">
              <mxPoint x="570" y="235" />
              <mxPoint x="570" y="15" />
            </Array>
          </mxGeometry>
        </mxCell>
        <mxCell id="PzlY1NgHu-uQ2nLMQ3hD-206" value="" style="group" parent="PzlY1NgHu-uQ2nLMQ3hD-223" vertex="1" connectable="0">
          <mxGeometry x="60" y="220" width="387" height="30" as="geometry" />
        </mxCell>
        <mxCell id="PzlY1NgHu-uQ2nLMQ3hD-191" value="Expression" style="html=1;align=center;verticalAlign=middle;rounded=1;absoluteArcSize=1;arcSize=10;dashed=0;" parent="PzlY1NgHu-uQ2nLMQ3hD-206" vertex="1">
          <mxGeometry x="264" width="70" height="30" as="geometry" />
        </mxCell>
        <mxCell id="PzlY1NgHu-uQ2nLMQ3hD-193" value="Statement" style="html=1;align=center;verticalAlign=middle;rounded=1;absoluteArcSize=1;arcSize=10;dashed=0;" parent="PzlY1NgHu-uQ2nLMQ3hD-206" vertex="1">
          <mxGeometry x="50" width="70" height="30" as="geometry" />
        </mxCell>
        <mxCell id="PzlY1NgHu-uQ2nLMQ3hD-202" style="edgeStyle=orthogonalEdgeStyle;rounded=1;orthogonalLoop=1;jettySize=auto;html=1;exitX=1;exitY=0.5;exitDx=0;exitDy=0;entryX=0;entryY=0.5;entryDx=0;entryDy=0;endArrow=classic;endFill=1;" parent="PzlY1NgHu-uQ2nLMQ3hD-206" source="PzlY1NgHu-uQ2nLMQ3hD-195" target="PzlY1NgHu-uQ2nLMQ3hD-191" edge="1">
          <mxGeometry relative="1" as="geometry" />
        </mxCell>
        <mxCell id="PzlY1NgHu-uQ2nLMQ3hD-195" value="&quot;(&quot;" style="text;html=1;align=center;verticalAlign=middle;dashed=0;fillColor=#ffffff;strokeColor=#000000;" parent="PzlY1NgHu-uQ2nLMQ3hD-206" vertex="1">
          <mxGeometry x="210" width="30" height="30" as="geometry" />
        </mxCell>
        <mxCell id="PzlY1NgHu-uQ2nLMQ3hD-196" value="&quot;)&quot;" style="text;html=1;align=center;verticalAlign=middle;dashed=0;fillColor=#ffffff;strokeColor=#000000;" parent="PzlY1NgHu-uQ2nLMQ3hD-206" vertex="1">
          <mxGeometry x="357" width="30" height="30" as="geometry" />
        </mxCell>
        <mxCell id="PzlY1NgHu-uQ2nLMQ3hD-203" style="edgeStyle=orthogonalEdgeStyle;rounded=1;orthogonalLoop=1;jettySize=auto;html=1;exitX=1;exitY=0.5;exitDx=0;exitDy=0;entryX=0;entryY=0.5;entryDx=0;entryDy=0;endArrow=classic;endFill=1;" parent="PzlY1NgHu-uQ2nLMQ3hD-206" source="PzlY1NgHu-uQ2nLMQ3hD-191" target="PzlY1NgHu-uQ2nLMQ3hD-196" edge="1">
          <mxGeometry relative="1" as="geometry" />
        </mxCell>
        <mxCell id="PzlY1NgHu-uQ2nLMQ3hD-201" style="edgeStyle=orthogonalEdgeStyle;rounded=1;orthogonalLoop=1;jettySize=auto;html=1;exitX=1;exitY=0.5;exitDx=0;exitDy=0;entryX=0;entryY=0.5;entryDx=0;entryDy=0;endArrow=classic;endFill=1;" parent="PzlY1NgHu-uQ2nLMQ3hD-206" source="PzlY1NgHu-uQ2nLMQ3hD-197" target="PzlY1NgHu-uQ2nLMQ3hD-195" edge="1">
          <mxGeometry relative="1" as="geometry" />
        </mxCell>
        <mxCell id="PzlY1NgHu-uQ2nLMQ3hD-197" value="&quot;while&quot;" style="text;html=1;align=center;verticalAlign=middle;dashed=0;fillColor=#ffffff;strokeColor=#000000;" parent="PzlY1NgHu-uQ2nLMQ3hD-206" vertex="1">
          <mxGeometry x="142" width="50" height="30" as="geometry" />
        </mxCell>
        <mxCell id="PzlY1NgHu-uQ2nLMQ3hD-200" style="edgeStyle=orthogonalEdgeStyle;rounded=1;orthogonalLoop=1;jettySize=auto;html=1;exitX=1;exitY=0.5;exitDx=0;exitDy=0;entryX=0;entryY=0.5;entryDx=0;entryDy=0;endArrow=classic;endFill=1;" parent="PzlY1NgHu-uQ2nLMQ3hD-206" source="PzlY1NgHu-uQ2nLMQ3hD-193" target="PzlY1NgHu-uQ2nLMQ3hD-197" edge="1">
          <mxGeometry relative="1" as="geometry" />
        </mxCell>
        <mxCell id="PzlY1NgHu-uQ2nLMQ3hD-199" style="edgeStyle=orthogonalEdgeStyle;rounded=1;orthogonalLoop=1;jettySize=auto;html=1;exitX=1;exitY=0.5;exitDx=0;exitDy=0;entryX=0;entryY=0.5;entryDx=0;entryDy=0;endArrow=classic;endFill=1;" parent="PzlY1NgHu-uQ2nLMQ3hD-206" source="PzlY1NgHu-uQ2nLMQ3hD-198" target="PzlY1NgHu-uQ2nLMQ3hD-193" edge="1">
          <mxGeometry relative="1" as="geometry" />
        </mxCell>
        <mxCell id="PzlY1NgHu-uQ2nLMQ3hD-198" value="&quot;do&quot;" style="text;html=1;align=center;verticalAlign=middle;dashed=0;fillColor=#ffffff;strokeColor=#000000;" parent="PzlY1NgHu-uQ2nLMQ3hD-206" vertex="1">
          <mxGeometry width="30" height="30" as="geometry" />
        </mxCell>
        <mxCell id="PzlY1NgHu-uQ2nLMQ3hD-205" style="edgeStyle=orthogonalEdgeStyle;rounded=1;orthogonalLoop=1;jettySize=auto;html=1;exitX=1;exitY=0.5;exitDx=0;exitDy=0;entryX=0;entryY=0.5;entryDx=0;entryDy=0;endArrow=classic;endFill=1;" parent="PzlY1NgHu-uQ2nLMQ3hD-223" source="PzlY1NgHu-uQ2nLMQ3hD-115" target="PzlY1NgHu-uQ2nLMQ3hD-198" edge="1">
          <mxGeometry relative="1" as="geometry">
            <Array as="points">
              <mxPoint x="40" y="15" />
              <mxPoint x="40" y="235" />
            </Array>
          </mxGeometry>
        </mxCell>
        <mxCell id="PzlY1NgHu-uQ2nLMQ3hD-216" style="edgeStyle=orthogonalEdgeStyle;rounded=1;orthogonalLoop=1;jettySize=auto;html=1;exitX=1;exitY=0.5;exitDx=0;exitDy=0;entryX=0;entryY=0.5;entryDx=0;entryDy=0;endArrow=classic;endFill=1;" parent="PzlY1NgHu-uQ2nLMQ3hD-223" source="PzlY1NgHu-uQ2nLMQ3hD-211" target="PzlY1NgHu-uQ2nLMQ3hD-116" edge="1">
          <mxGeometry relative="1" as="geometry">
            <Array as="points">
              <mxPoint x="570" y="155" />
              <mxPoint x="570" y="15" />
            </Array>
          </mxGeometry>
        </mxCell>
        <mxCell id="PzlY1NgHu-uQ2nLMQ3hD-217" value="" style="group" parent="PzlY1NgHu-uQ2nLMQ3hD-223" vertex="1" connectable="0">
          <mxGeometry x="60" y="137.5" width="357" height="35" as="geometry" />
        </mxCell>
        <mxCell id="PzlY1NgHu-uQ2nLMQ3hD-207" value="Expression" style="html=1;align=center;verticalAlign=middle;rounded=1;absoluteArcSize=1;arcSize=10;dashed=0;" parent="PzlY1NgHu-uQ2nLMQ3hD-217" vertex="1">
          <mxGeometry y="2.5" width="70" height="30" as="geometry" />
        </mxCell>
        <mxCell id="PzlY1NgHu-uQ2nLMQ3hD-208" value="Numerical Literal" style="ellipse;whiteSpace=wrap;" parent="PzlY1NgHu-uQ2nLMQ3hD-217" vertex="1">
          <mxGeometry x="140" width="75" height="35" as="geometry" />
        </mxCell>
        <mxCell id="PzlY1NgHu-uQ2nLMQ3hD-213" style="edgeStyle=orthogonalEdgeStyle;rounded=1;orthogonalLoop=1;jettySize=auto;html=1;exitX=1;exitY=0.5;exitDx=0;exitDy=0;entryX=-0.039;entryY=0.5;entryDx=0;entryDy=0;entryPerimeter=0;endArrow=classic;endFill=1;" parent="PzlY1NgHu-uQ2nLMQ3hD-217" source="PzlY1NgHu-uQ2nLMQ3hD-209" target="PzlY1NgHu-uQ2nLMQ3hD-208" edge="1">
          <mxGeometry relative="1" as="geometry" />
        </mxCell>
        <mxCell id="PzlY1NgHu-uQ2nLMQ3hD-209" value="&quot;?&quot;" style="text;html=1;align=center;verticalAlign=middle;dashed=0;fillColor=#ffffff;strokeColor=#000000;" parent="PzlY1NgHu-uQ2nLMQ3hD-217" vertex="1">
          <mxGeometry x="90" y="2.5" width="30" height="30" as="geometry" />
        </mxCell>
        <mxCell id="PzlY1NgHu-uQ2nLMQ3hD-212" style="edgeStyle=orthogonalEdgeStyle;rounded=1;orthogonalLoop=1;jettySize=auto;html=1;exitX=1;exitY=0.5;exitDx=0;exitDy=0;entryX=0;entryY=0.5;entryDx=0;entryDy=0;endArrow=classic;endFill=1;" parent="PzlY1NgHu-uQ2nLMQ3hD-217" source="PzlY1NgHu-uQ2nLMQ3hD-207" target="PzlY1NgHu-uQ2nLMQ3hD-209" edge="1">
          <mxGeometry relative="1" as="geometry" />
        </mxCell>
        <mxCell id="PzlY1NgHu-uQ2nLMQ3hD-210" value="&quot;:&quot;" style="text;html=1;align=center;verticalAlign=middle;dashed=0;fillColor=#ffffff;strokeColor=#000000;" parent="PzlY1NgHu-uQ2nLMQ3hD-217" vertex="1">
          <mxGeometry x="234" y="2.5" width="30" height="30" as="geometry" />
        </mxCell>
        <mxCell id="PzlY1NgHu-uQ2nLMQ3hD-214" style="edgeStyle=orthogonalEdgeStyle;rounded=1;orthogonalLoop=1;jettySize=auto;html=1;exitX=1;exitY=0.5;exitDx=0;exitDy=0;entryX=0;entryY=0.5;entryDx=0;entryDy=0;endArrow=classic;endFill=1;" parent="PzlY1NgHu-uQ2nLMQ3hD-217" source="PzlY1NgHu-uQ2nLMQ3hD-208" target="PzlY1NgHu-uQ2nLMQ3hD-210" edge="1">
          <mxGeometry relative="1" as="geometry" />
        </mxCell>
        <mxCell id="PzlY1NgHu-uQ2nLMQ3hD-211" value="Numerical Literal" style="ellipse;whiteSpace=wrap;" parent="PzlY1NgHu-uQ2nLMQ3hD-217" vertex="1">
          <mxGeometry x="282" width="75" height="35" as="geometry" />
        </mxCell>
        <mxCell id="PzlY1NgHu-uQ2nLMQ3hD-215" style="edgeStyle=orthogonalEdgeStyle;rounded=1;orthogonalLoop=1;jettySize=auto;html=1;exitX=1;exitY=0.5;exitDx=0;exitDy=0;entryX=0;entryY=0.5;entryDx=0;entryDy=0;endArrow=classic;endFill=1;" parent="PzlY1NgHu-uQ2nLMQ3hD-217" source="PzlY1NgHu-uQ2nLMQ3hD-210" target="PzlY1NgHu-uQ2nLMQ3hD-211" edge="1">
          <mxGeometry relative="1" as="geometry" />
        </mxCell>
        <mxCell id="PzlY1NgHu-uQ2nLMQ3hD-218" style="edgeStyle=orthogonalEdgeStyle;rounded=1;orthogonalLoop=1;jettySize=auto;html=1;exitX=1;exitY=0.5;exitDx=0;exitDy=0;entryX=0;entryY=0.5;entryDx=0;entryDy=0;endArrow=classic;endFill=1;" parent="PzlY1NgHu-uQ2nLMQ3hD-223" source="PzlY1NgHu-uQ2nLMQ3hD-115" target="PzlY1NgHu-uQ2nLMQ3hD-207" edge="1">
          <mxGeometry relative="1" as="geometry">
            <Array as="points">
              <mxPoint x="40" y="15" />
              <mxPoint x="40" y="155" />
            </Array>
          </mxGeometry>
        </mxCell>
        <mxCell id="PzlY1NgHu-uQ2nLMQ3hD-222" style="edgeStyle=orthogonalEdgeStyle;rounded=1;orthogonalLoop=1;jettySize=auto;html=1;exitX=1;exitY=0.5;exitDx=0;exitDy=0;entryX=0;entryY=0.5;entryDx=0;entryDy=0;endArrow=classic;endFill=1;" parent="PzlY1NgHu-uQ2nLMQ3hD-223" source="PzlY1NgHu-uQ2nLMQ3hD-220" target="PzlY1NgHu-uQ2nLMQ3hD-116" edge="1">
          <mxGeometry relative="1" as="geometry">
            <Array as="points">
              <mxPoint x="300" y="75" />
              <mxPoint x="300" y="15" />
            </Array>
          </mxGeometry>
        </mxCell>
        <mxCell id="PzlY1NgHu-uQ2nLMQ3hD-220" value="Primary" style="html=1;align=center;verticalAlign=middle;rounded=1;absoluteArcSize=1;arcSize=10;dashed=0;" parent="PzlY1NgHu-uQ2nLMQ3hD-223" vertex="1">
          <mxGeometry x="230" y="60" width="60" height="30" as="geometry" />
        </mxCell>
        <mxCell id="PzlY1NgHu-uQ2nLMQ3hD-221" style="edgeStyle=orthogonalEdgeStyle;rounded=1;orthogonalLoop=1;jettySize=auto;html=1;exitX=1;exitY=0.5;exitDx=0;exitDy=0;entryX=0;entryY=0.5;entryDx=0;entryDy=0;endArrow=classic;endFill=1;" parent="PzlY1NgHu-uQ2nLMQ3hD-223" source="PzlY1NgHu-uQ2nLMQ3hD-115" target="PzlY1NgHu-uQ2nLMQ3hD-220" edge="1">
          <mxGeometry relative="1" as="geometry">
            <Array as="points">
              <mxPoint x="40" y="15" />
              <mxPoint x="40" y="75" />
            </Array>
          </mxGeometry>
        </mxCell>
        <mxCell id="619673pN2npM3stwNII7-126" value="" style="group" vertex="1" connectable="0" parent="1">
          <mxGeometry x="10" y="690" width="370" height="490" as="geometry" />
        </mxCell>
        <mxCell id="619673pN2npM3stwNII7-61" value="Expression" style="shape=umlFrame;whiteSpace=wrap;html=1;width=80;height=30;boundedLbl=1;verticalAlign=middle;align=left;spacingLeft=5;" vertex="1" parent="619673pN2npM3stwNII7-126">
          <mxGeometry width="370" height="490" as="geometry" />
        </mxCell>
        <mxCell id="619673pN2npM3stwNII7-124" value="" style="group" vertex="1" connectable="0" parent="619673pN2npM3stwNII7-126">
          <mxGeometry x="10" y="40" width="350" height="440" as="geometry" />
        </mxCell>
        <mxCell id="619673pN2npM3stwNII7-1" value="" style="ellipse;fillColor=#000000;strokeColor=none;" vertex="1" parent="619673pN2npM3stwNII7-124">
          <mxGeometry width="30" height="30" as="geometry" />
        </mxCell>
        <mxCell id="619673pN2npM3stwNII7-2" value="" style="shape=sumEllipse;perimeter=ellipsePerimeter;whiteSpace=wrap;html=1;backgroundOutline=1;" vertex="1" parent="619673pN2npM3stwNII7-124">
          <mxGeometry x="320" width="30" height="30" as="geometry" />
        </mxCell>
        <mxCell id="619673pN2npM3stwNII7-3" value="&quot;(&quot;" style="text;html=1;align=center;verticalAlign=middle;dashed=0;fillColor=#ffffff;strokeColor=#000000;" vertex="1" parent="619673pN2npM3stwNII7-124">
          <mxGeometry x="60" width="30" height="30" as="geometry" />
        </mxCell>
        <mxCell id="619673pN2npM3stwNII7-10" style="edgeStyle=orthogonalEdgeStyle;rounded=0;orthogonalLoop=1;jettySize=auto;html=1;exitX=1;exitY=0.5;exitDx=0;exitDy=0;entryX=0;entryY=0.5;entryDx=0;entryDy=0;endArrow=classic;endFill=1;" edge="1" parent="619673pN2npM3stwNII7-124" source="619673pN2npM3stwNII7-1" target="619673pN2npM3stwNII7-3">
          <mxGeometry relative="1" as="geometry" />
        </mxCell>
        <mxCell id="619673pN2npM3stwNII7-11" style="edgeStyle=orthogonalEdgeStyle;rounded=0;orthogonalLoop=1;jettySize=auto;html=1;exitX=1;exitY=0.5;exitDx=0;exitDy=0;entryX=0;entryY=0.5;entryDx=0;entryDy=0;endArrow=classic;endFill=1;" edge="1" parent="619673pN2npM3stwNII7-124" source="619673pN2npM3stwNII7-4" target="619673pN2npM3stwNII7-2">
          <mxGeometry relative="1" as="geometry" />
        </mxCell>
        <mxCell id="619673pN2npM3stwNII7-4" value="&quot;)&quot;" style="text;html=1;align=center;verticalAlign=middle;dashed=0;fillColor=#ffffff;strokeColor=#000000;" vertex="1" parent="619673pN2npM3stwNII7-124">
          <mxGeometry x="220" width="30" height="30" as="geometry" />
        </mxCell>
        <mxCell id="619673pN2npM3stwNII7-6" style="edgeStyle=orthogonalEdgeStyle;orthogonalLoop=1;jettySize=auto;html=1;exitX=1;exitY=0.5;exitDx=0;exitDy=0;entryX=0;entryY=0.5;entryDx=0;entryDy=0;rounded=1;" edge="1" parent="619673pN2npM3stwNII7-124" target="619673pN2npM3stwNII7-8" source="619673pN2npM3stwNII7-3">
          <mxGeometry relative="1" as="geometry">
            <mxPoint x="80" y="20.000000000000114" as="sourcePoint" />
          </mxGeometry>
        </mxCell>
        <mxCell id="619673pN2npM3stwNII7-7" style="edgeStyle=orthogonalEdgeStyle;orthogonalLoop=1;jettySize=auto;html=1;exitX=1;exitY=0.5;exitDx=0;exitDy=0;endArrow=classic;endFill=1;rounded=1;entryX=0;entryY=0.5;entryDx=0;entryDy=0;" edge="1" parent="619673pN2npM3stwNII7-124" source="619673pN2npM3stwNII7-8" target="619673pN2npM3stwNII7-4">
          <mxGeometry relative="1" as="geometry">
            <mxPoint x="230" y="20.000000000000114" as="targetPoint" />
            <Array as="points">
              <mxPoint x="200" y="15" />
              <mxPoint x="200" y="15" />
            </Array>
          </mxGeometry>
        </mxCell>
        <mxCell id="619673pN2npM3stwNII7-8" value="Expression" style="html=1;align=center;verticalAlign=middle;rounded=1;absoluteArcSize=1;arcSize=10;dashed=0;" vertex="1" parent="619673pN2npM3stwNII7-124">
          <mxGeometry x="120" width="70" height="30" as="geometry" />
        </mxCell>
        <mxCell id="619673pN2npM3stwNII7-9" style="edgeStyle=orthogonalEdgeStyle;orthogonalLoop=1;jettySize=auto;html=1;exitX=1;exitY=0.5;exitDx=0;exitDy=0;entryX=0;entryY=0.5;entryDx=0;entryDy=0;endArrow=none;endFill=0;rounded=1;" edge="1" parent="619673pN2npM3stwNII7-124" source="619673pN2npM3stwNII7-8" target="619673pN2npM3stwNII7-8">
          <mxGeometry relative="1" as="geometry">
            <Array as="points">
              <mxPoint x="205" y="15" />
              <mxPoint x="205" y="40" />
              <mxPoint x="100" y="40" />
              <mxPoint x="100" y="15" />
            </Array>
          </mxGeometry>
        </mxCell>
        <mxCell id="619673pN2npM3stwNII7-12" value="&quot;||&quot;" style="text;html=1;align=center;verticalAlign=middle;dashed=0;fillColor=#ffffff;strokeColor=#000000;" vertex="1" parent="619673pN2npM3stwNII7-124">
          <mxGeometry x="160" y="50" width="30" height="30" as="geometry" />
        </mxCell>
        <mxCell id="619673pN2npM3stwNII7-17" style="edgeStyle=orthogonalEdgeStyle;rounded=1;orthogonalLoop=1;jettySize=auto;html=1;exitX=1;exitY=0.5;exitDx=0;exitDy=0;entryX=0;entryY=0.5;entryDx=0;entryDy=0;endArrow=classic;endFill=1;" edge="1" parent="619673pN2npM3stwNII7-124" source="619673pN2npM3stwNII7-13" target="619673pN2npM3stwNII7-12">
          <mxGeometry relative="1" as="geometry">
            <Array as="points">
              <mxPoint x="140" y="105" />
              <mxPoint x="140" y="65" />
            </Array>
          </mxGeometry>
        </mxCell>
        <mxCell id="619673pN2npM3stwNII7-13" value="Expression" style="html=1;align=center;verticalAlign=middle;rounded=1;absoluteArcSize=1;arcSize=10;dashed=0;" vertex="1" parent="619673pN2npM3stwNII7-124">
          <mxGeometry x="60" y="90" width="70" height="30" as="geometry" />
        </mxCell>
        <mxCell id="619673pN2npM3stwNII7-23" style="edgeStyle=orthogonalEdgeStyle;rounded=1;orthogonalLoop=1;jettySize=auto;html=1;exitX=1;exitY=0.5;exitDx=0;exitDy=0;entryX=0;entryY=0.5;entryDx=0;entryDy=0;endArrow=classic;endFill=1;" edge="1" parent="619673pN2npM3stwNII7-124" source="619673pN2npM3stwNII7-1" target="619673pN2npM3stwNII7-13">
          <mxGeometry relative="1" as="geometry">
            <Array as="points">
              <mxPoint x="40" y="15" />
              <mxPoint x="40" y="105" />
            </Array>
          </mxGeometry>
        </mxCell>
        <mxCell id="619673pN2npM3stwNII7-14" value="&quot;&amp;amp;&amp;amp;&quot;" style="text;html=1;align=center;verticalAlign=middle;dashed=0;fillColor=#ffffff;strokeColor=#000000;" vertex="1" parent="619673pN2npM3stwNII7-124">
          <mxGeometry x="155" y="90" width="40" height="30" as="geometry" />
        </mxCell>
        <mxCell id="619673pN2npM3stwNII7-16" style="edgeStyle=orthogonalEdgeStyle;rounded=0;orthogonalLoop=1;jettySize=auto;html=1;exitX=1;exitY=0.5;exitDx=0;exitDy=0;entryX=0;entryY=0.5;entryDx=0;entryDy=0;endArrow=classic;endFill=1;" edge="1" parent="619673pN2npM3stwNII7-124" source="619673pN2npM3stwNII7-13" target="619673pN2npM3stwNII7-14">
          <mxGeometry relative="1" as="geometry" />
        </mxCell>
        <mxCell id="619673pN2npM3stwNII7-15" value="&quot;^^&quot;" style="text;html=1;align=center;verticalAlign=middle;dashed=0;fillColor=#ffffff;strokeColor=#000000;" vertex="1" parent="619673pN2npM3stwNII7-124">
          <mxGeometry x="160" y="130" width="30" height="30" as="geometry" />
        </mxCell>
        <mxCell id="619673pN2npM3stwNII7-18" style="edgeStyle=orthogonalEdgeStyle;rounded=1;orthogonalLoop=1;jettySize=auto;html=1;exitX=1;exitY=0.5;exitDx=0;exitDy=0;entryX=0;entryY=0.5;entryDx=0;entryDy=0;endArrow=classic;endFill=1;" edge="1" parent="619673pN2npM3stwNII7-124" source="619673pN2npM3stwNII7-13" target="619673pN2npM3stwNII7-15">
          <mxGeometry relative="1" as="geometry">
            <Array as="points">
              <mxPoint x="140" y="105" />
              <mxPoint x="140" y="145" />
            </Array>
          </mxGeometry>
        </mxCell>
        <mxCell id="619673pN2npM3stwNII7-27" style="edgeStyle=orthogonalEdgeStyle;rounded=1;orthogonalLoop=1;jettySize=auto;html=1;exitX=1;exitY=0.5;exitDx=0;exitDy=0;entryX=0;entryY=0.5;entryDx=0;entryDy=0;endArrow=classic;endFill=1;" edge="1" parent="619673pN2npM3stwNII7-124" source="619673pN2npM3stwNII7-19" target="619673pN2npM3stwNII7-2">
          <mxGeometry relative="1" as="geometry">
            <Array as="points">
              <mxPoint x="300" y="105" />
              <mxPoint x="300" y="15" />
            </Array>
          </mxGeometry>
        </mxCell>
        <mxCell id="619673pN2npM3stwNII7-19" value="Expression" style="html=1;align=center;verticalAlign=middle;rounded=1;absoluteArcSize=1;arcSize=10;dashed=0;" vertex="1" parent="619673pN2npM3stwNII7-124">
          <mxGeometry x="220" y="90" width="70" height="30" as="geometry" />
        </mxCell>
        <mxCell id="619673pN2npM3stwNII7-21" style="edgeStyle=orthogonalEdgeStyle;rounded=1;orthogonalLoop=1;jettySize=auto;html=1;exitX=1;exitY=0.5;exitDx=0;exitDy=0;endArrow=classic;endFill=1;entryX=0;entryY=0.5;entryDx=0;entryDy=0;" edge="1" parent="619673pN2npM3stwNII7-124" source="619673pN2npM3stwNII7-12" target="619673pN2npM3stwNII7-19">
          <mxGeometry relative="1" as="geometry">
            <mxPoint x="225" y="105" as="targetPoint" />
            <mxPoint x="195" y="65" as="sourcePoint" />
            <Array as="points">
              <mxPoint x="205" y="65" />
              <mxPoint x="205" y="105" />
            </Array>
          </mxGeometry>
        </mxCell>
        <mxCell id="619673pN2npM3stwNII7-20" style="edgeStyle=orthogonalEdgeStyle;rounded=1;orthogonalLoop=1;jettySize=auto;html=1;exitX=1;exitY=0.5;exitDx=0;exitDy=0;entryX=0;entryY=0.5;entryDx=0;entryDy=0;endArrow=classic;endFill=1;" edge="1" parent="619673pN2npM3stwNII7-124" source="619673pN2npM3stwNII7-14" target="619673pN2npM3stwNII7-19">
          <mxGeometry relative="1" as="geometry" />
        </mxCell>
        <mxCell id="619673pN2npM3stwNII7-22" style="edgeStyle=orthogonalEdgeStyle;rounded=1;orthogonalLoop=1;jettySize=auto;html=1;exitX=1;exitY=0.5;exitDx=0;exitDy=0;entryX=0;entryY=0.5;entryDx=0;entryDy=0;endArrow=classic;endFill=1;" edge="1" parent="619673pN2npM3stwNII7-124" source="619673pN2npM3stwNII7-15" target="619673pN2npM3stwNII7-19">
          <mxGeometry relative="1" as="geometry">
            <mxPoint x="195" y="145" as="sourcePoint" />
            <mxPoint x="225" y="105" as="targetPoint" />
            <Array as="points">
              <mxPoint x="205" y="145" />
              <mxPoint x="205" y="105" />
            </Array>
          </mxGeometry>
        </mxCell>
        <mxCell id="619673pN2npM3stwNII7-24" value="&quot;!&quot;" style="text;html=1;align=center;verticalAlign=middle;dashed=0;fillColor=#ffffff;strokeColor=#000000;" vertex="1" parent="619673pN2npM3stwNII7-124">
          <mxGeometry x="60" y="170" width="30" height="30" as="geometry" />
        </mxCell>
        <mxCell id="619673pN2npM3stwNII7-29" style="edgeStyle=orthogonalEdgeStyle;rounded=1;orthogonalLoop=1;jettySize=auto;html=1;exitX=1;exitY=0.5;exitDx=0;exitDy=0;entryX=0;entryY=0.5;entryDx=0;entryDy=0;endArrow=classic;endFill=1;" edge="1" parent="619673pN2npM3stwNII7-124" source="619673pN2npM3stwNII7-1" target="619673pN2npM3stwNII7-24">
          <mxGeometry relative="1" as="geometry">
            <Array as="points">
              <mxPoint x="40" y="15" />
              <mxPoint x="40" y="185" />
            </Array>
          </mxGeometry>
        </mxCell>
        <mxCell id="619673pN2npM3stwNII7-28" style="edgeStyle=orthogonalEdgeStyle;rounded=1;orthogonalLoop=1;jettySize=auto;html=1;exitX=1;exitY=0.5;exitDx=0;exitDy=0;entryX=0;entryY=0.5;entryDx=0;entryDy=0;endArrow=classic;endFill=1;" edge="1" parent="619673pN2npM3stwNII7-124" source="619673pN2npM3stwNII7-25" target="619673pN2npM3stwNII7-2">
          <mxGeometry relative="1" as="geometry">
            <Array as="points">
              <mxPoint x="300" y="185" />
              <mxPoint x="300" y="15" />
            </Array>
          </mxGeometry>
        </mxCell>
        <mxCell id="619673pN2npM3stwNII7-25" value="Expression" style="html=1;align=center;verticalAlign=middle;rounded=1;absoluteArcSize=1;arcSize=10;dashed=0;" vertex="1" parent="619673pN2npM3stwNII7-124">
          <mxGeometry x="110" y="170" width="70" height="30" as="geometry" />
        </mxCell>
        <mxCell id="619673pN2npM3stwNII7-26" style="edgeStyle=orthogonalEdgeStyle;rounded=1;orthogonalLoop=1;jettySize=auto;html=1;exitX=1;exitY=0.5;exitDx=0;exitDy=0;entryX=0;entryY=0.5;entryDx=0;entryDy=0;endArrow=classic;endFill=1;" edge="1" parent="619673pN2npM3stwNII7-124" source="619673pN2npM3stwNII7-24" target="619673pN2npM3stwNII7-25">
          <mxGeometry relative="1" as="geometry" />
        </mxCell>
        <mxCell id="619673pN2npM3stwNII7-32" value="&quot;&amp;lt;&quot;" style="text;html=1;align=center;verticalAlign=middle;dashed=0;fillColor=#ffffff;strokeColor=#000000;" vertex="1" parent="619673pN2npM3stwNII7-124">
          <mxGeometry x="154" y="210" width="30" height="30" as="geometry" />
        </mxCell>
        <mxCell id="619673pN2npM3stwNII7-118" style="edgeStyle=orthogonalEdgeStyle;rounded=0;jumpStyle=none;jumpSize=6;orthogonalLoop=1;jettySize=auto;html=1;exitX=1;exitY=0.5;exitDx=0;exitDy=0;entryX=0;entryY=0.5;entryDx=0;entryDy=0;endArrow=classic;endFill=1;" edge="1" parent="619673pN2npM3stwNII7-124" source="619673pN2npM3stwNII7-36" target="619673pN2npM3stwNII7-32">
          <mxGeometry relative="1" as="geometry">
            <Array as="points">
              <mxPoint x="130" y="305" />
              <mxPoint x="130" y="225" />
            </Array>
          </mxGeometry>
        </mxCell>
        <mxCell id="619673pN2npM3stwNII7-36" value="Primary" style="html=1;align=center;verticalAlign=middle;rounded=1;absoluteArcSize=1;arcSize=10;dashed=0;" vertex="1" parent="619673pN2npM3stwNII7-124">
          <mxGeometry x="60" y="290" width="60" height="30" as="geometry" />
        </mxCell>
        <mxCell id="619673pN2npM3stwNII7-58" style="edgeStyle=orthogonalEdgeStyle;rounded=1;orthogonalLoop=1;jettySize=auto;html=1;exitX=1;exitY=0.5;exitDx=0;exitDy=0;entryX=0;entryY=0.5;entryDx=0;entryDy=0;endArrow=classic;endFill=1;" edge="1" parent="619673pN2npM3stwNII7-124" source="619673pN2npM3stwNII7-1" target="619673pN2npM3stwNII7-36">
          <mxGeometry relative="1" as="geometry">
            <Array as="points">
              <mxPoint x="40" y="15" />
              <mxPoint x="40" y="305" />
            </Array>
          </mxGeometry>
        </mxCell>
        <mxCell id="619673pN2npM3stwNII7-38" value="&quot;&amp;gt;&quot;" style="text;html=1;align=center;verticalAlign=middle;dashed=0;fillColor=#ffffff;strokeColor=#000000;" vertex="1" parent="619673pN2npM3stwNII7-124">
          <mxGeometry x="154" y="250" width="30" height="30" as="geometry" />
        </mxCell>
        <mxCell id="619673pN2npM3stwNII7-40" value="&quot;==&quot;" style="text;html=1;align=center;verticalAlign=middle;dashed=0;fillColor=#ffffff;strokeColor=#000000;" vertex="1" parent="619673pN2npM3stwNII7-124">
          <mxGeometry x="151" y="290" width="36" height="30" as="geometry" />
        </mxCell>
        <mxCell id="619673pN2npM3stwNII7-113" style="edgeStyle=orthogonalEdgeStyle;rounded=0;jumpStyle=none;jumpSize=6;orthogonalLoop=1;jettySize=auto;html=1;exitX=1;exitY=0.5;exitDx=0;exitDy=0;entryX=0;entryY=0.5;entryDx=0;entryDy=0;endArrow=classic;endFill=1;" edge="1" parent="619673pN2npM3stwNII7-124" source="619673pN2npM3stwNII7-36" target="619673pN2npM3stwNII7-40">
          <mxGeometry relative="1" as="geometry" />
        </mxCell>
        <mxCell id="619673pN2npM3stwNII7-59" style="edgeStyle=orthogonalEdgeStyle;rounded=1;orthogonalLoop=1;jettySize=auto;html=1;exitX=1;exitY=0.5;exitDx=0;exitDy=0;entryX=0;entryY=0.5;entryDx=0;entryDy=0;endArrow=classic;endFill=1;" edge="1" parent="619673pN2npM3stwNII7-124" source="619673pN2npM3stwNII7-41" target="619673pN2npM3stwNII7-2">
          <mxGeometry relative="1" as="geometry">
            <Array as="points">
              <mxPoint x="300" y="325" />
              <mxPoint x="300" y="15" />
            </Array>
          </mxGeometry>
        </mxCell>
        <mxCell id="619673pN2npM3stwNII7-41" value="Primary" style="html=1;align=center;verticalAlign=middle;rounded=1;absoluteArcSize=1;arcSize=10;dashed=0;" vertex="1" parent="619673pN2npM3stwNII7-124">
          <mxGeometry x="210" y="310" width="60" height="30" as="geometry" />
        </mxCell>
        <mxCell id="619673pN2npM3stwNII7-31" style="edgeStyle=orthogonalEdgeStyle;rounded=1;orthogonalLoop=1;jettySize=auto;html=1;exitX=1;exitY=0.5;exitDx=0;exitDy=0;endArrow=classic;endFill=1;entryX=0;entryY=0.5;entryDx=0;entryDy=0;" edge="1" parent="619673pN2npM3stwNII7-124" source="619673pN2npM3stwNII7-32" target="619673pN2npM3stwNII7-41">
          <mxGeometry relative="1" as="geometry">
            <mxPoint x="205" y="325" as="targetPoint" />
            <mxPoint x="179" y="225" as="sourcePoint" />
            <Array as="points">
              <mxPoint x="195" y="225" />
              <mxPoint x="195" y="325" />
            </Array>
          </mxGeometry>
        </mxCell>
        <mxCell id="619673pN2npM3stwNII7-37" style="edgeStyle=orthogonalEdgeStyle;rounded=1;orthogonalLoop=1;jettySize=auto;html=1;exitX=1;exitY=0.5;exitDx=0;exitDy=0;entryX=0;entryY=0.5;entryDx=0;entryDy=0;endArrow=classic;endFill=1;" edge="1" parent="619673pN2npM3stwNII7-124" source="619673pN2npM3stwNII7-38" target="619673pN2npM3stwNII7-41">
          <mxGeometry relative="1" as="geometry">
            <mxPoint x="179" y="265" as="sourcePoint" />
            <mxPoint x="205" y="325" as="targetPoint" />
            <Array as="points">
              <mxPoint x="195" y="265" />
              <mxPoint x="195" y="325" />
            </Array>
          </mxGeometry>
        </mxCell>
        <mxCell id="619673pN2npM3stwNII7-39" style="edgeStyle=orthogonalEdgeStyle;rounded=1;orthogonalLoop=1;jettySize=auto;html=1;exitX=1;exitY=0.5;exitDx=0;exitDy=0;entryX=0;entryY=0.5;entryDx=0;entryDy=0;endArrow=classic;endFill=1;" edge="1" parent="619673pN2npM3stwNII7-124" source="619673pN2npM3stwNII7-40" target="619673pN2npM3stwNII7-41">
          <mxGeometry relative="1" as="geometry">
            <mxPoint x="179" y="305" as="sourcePoint" />
            <mxPoint x="205" y="325" as="targetPoint" />
            <Array as="points">
              <mxPoint x="195" y="305" />
              <mxPoint x="195" y="325" />
            </Array>
          </mxGeometry>
        </mxCell>
        <mxCell id="619673pN2npM3stwNII7-55" style="edgeStyle=orthogonalEdgeStyle;rounded=1;orthogonalLoop=1;jettySize=auto;html=1;entryX=0;entryY=0.5;entryDx=0;entryDy=0;endArrow=classic;endFill=1;exitX=1;exitY=0.5;exitDx=0;exitDy=0;" edge="1" parent="619673pN2npM3stwNII7-124" source="619673pN2npM3stwNII7-46" target="619673pN2npM3stwNII7-41">
          <mxGeometry relative="1" as="geometry">
            <mxPoint x="200" y="425" as="sourcePoint" />
            <mxPoint x="205" y="325" as="targetPoint" />
            <Array as="points">
              <mxPoint x="195" y="425" />
              <mxPoint x="195" y="325" />
            </Array>
          </mxGeometry>
        </mxCell>
        <mxCell id="619673pN2npM3stwNII7-46" value="&quot;&amp;gt;=&quot;" style="text;html=1;align=center;verticalAlign=middle;dashed=0;fillColor=#ffffff;strokeColor=#000000;" vertex="1" parent="619673pN2npM3stwNII7-124">
          <mxGeometry x="151" y="410" width="36" height="30" as="geometry" />
        </mxCell>
        <mxCell id="619673pN2npM3stwNII7-54" style="edgeStyle=orthogonalEdgeStyle;rounded=1;orthogonalLoop=1;jettySize=auto;html=1;entryX=0;entryY=0.5;entryDx=0;entryDy=0;endArrow=classic;endFill=1;exitX=1;exitY=0.5;exitDx=0;exitDy=0;" edge="1" parent="619673pN2npM3stwNII7-124" source="619673pN2npM3stwNII7-47" target="619673pN2npM3stwNII7-41">
          <mxGeometry relative="1" as="geometry">
            <mxPoint x="220" y="385" as="sourcePoint" />
            <mxPoint x="205" y="325" as="targetPoint" />
            <Array as="points">
              <mxPoint x="195" y="385" />
              <mxPoint x="195" y="325" />
            </Array>
          </mxGeometry>
        </mxCell>
        <mxCell id="619673pN2npM3stwNII7-47" value="&quot;&amp;lt;=&quot;" style="text;html=1;align=center;verticalAlign=middle;dashed=0;fillColor=#ffffff;strokeColor=#000000;" vertex="1" parent="619673pN2npM3stwNII7-124">
          <mxGeometry x="151" y="370" width="36" height="30" as="geometry" />
        </mxCell>
        <mxCell id="619673pN2npM3stwNII7-117" style="edgeStyle=orthogonalEdgeStyle;rounded=0;jumpStyle=none;jumpSize=6;orthogonalLoop=1;jettySize=auto;html=1;exitX=1;exitY=0.5;exitDx=0;exitDy=0;entryX=0;entryY=0.5;entryDx=0;entryDy=0;endArrow=classic;endFill=1;" edge="1" parent="619673pN2npM3stwNII7-124" source="619673pN2npM3stwNII7-36" target="619673pN2npM3stwNII7-47">
          <mxGeometry relative="1" as="geometry">
            <Array as="points">
              <mxPoint x="130" y="305" />
              <mxPoint x="130" y="385" />
            </Array>
          </mxGeometry>
        </mxCell>
        <mxCell id="619673pN2npM3stwNII7-53" style="edgeStyle=orthogonalEdgeStyle;rounded=1;orthogonalLoop=1;jettySize=auto;html=1;exitX=1;exitY=0.5;exitDx=0;exitDy=0;entryX=0;entryY=0.5;entryDx=0;entryDy=0;endArrow=classic;endFill=1;" edge="1" parent="619673pN2npM3stwNII7-124" source="619673pN2npM3stwNII7-48" target="619673pN2npM3stwNII7-41">
          <mxGeometry relative="1" as="geometry">
            <mxPoint x="179" y="345" as="sourcePoint" />
            <mxPoint x="205" y="325" as="targetPoint" />
            <Array as="points">
              <mxPoint x="195" y="345" />
              <mxPoint x="195" y="325" />
            </Array>
          </mxGeometry>
        </mxCell>
        <mxCell id="619673pN2npM3stwNII7-48" value="&quot;!=&quot;" style="text;html=1;align=center;verticalAlign=middle;dashed=0;fillColor=#ffffff;strokeColor=#000000;" vertex="1" parent="619673pN2npM3stwNII7-124">
          <mxGeometry x="154" y="330" width="30" height="30" as="geometry" />
        </mxCell>
        <mxCell id="619673pN2npM3stwNII7-114" style="edgeStyle=orthogonalEdgeStyle;rounded=0;jumpStyle=none;jumpSize=6;orthogonalLoop=1;jettySize=auto;html=1;exitX=1;exitY=0.5;exitDx=0;exitDy=0;entryX=0;entryY=0.5;entryDx=0;entryDy=0;endArrow=classic;endFill=1;" edge="1" parent="619673pN2npM3stwNII7-124" source="619673pN2npM3stwNII7-100" target="619673pN2npM3stwNII7-48">
          <mxGeometry relative="1" as="geometry" />
        </mxCell>
        <mxCell id="619673pN2npM3stwNII7-115" style="edgeStyle=orthogonalEdgeStyle;rounded=0;jumpStyle=none;jumpSize=6;orthogonalLoop=1;jettySize=auto;html=1;exitX=1;exitY=0.5;exitDx=0;exitDy=0;entryX=0;entryY=0.5;entryDx=0;entryDy=0;endArrow=classic;endFill=1;" edge="1" parent="619673pN2npM3stwNII7-124" source="619673pN2npM3stwNII7-100" target="619673pN2npM3stwNII7-46">
          <mxGeometry relative="1" as="geometry">
            <Array as="points">
              <mxPoint x="130" y="345" />
              <mxPoint x="130" y="425" />
            </Array>
          </mxGeometry>
        </mxCell>
        <mxCell id="619673pN2npM3stwNII7-116" style="edgeStyle=orthogonalEdgeStyle;rounded=0;jumpStyle=none;jumpSize=6;orthogonalLoop=1;jettySize=auto;html=1;exitX=1;exitY=0.5;exitDx=0;exitDy=0;entryX=0;entryY=0.5;entryDx=0;entryDy=0;endArrow=classic;endFill=1;" edge="1" parent="619673pN2npM3stwNII7-124" source="619673pN2npM3stwNII7-100" target="619673pN2npM3stwNII7-38">
          <mxGeometry relative="1" as="geometry">
            <Array as="points">
              <mxPoint x="130" y="345" />
              <mxPoint x="130" y="265" />
            </Array>
          </mxGeometry>
        </mxCell>
        <mxCell id="619673pN2npM3stwNII7-100" value="&quot;@&quot;" style="text;html=1;align=center;verticalAlign=middle;dashed=0;fillColor=#ffffff;strokeColor=#000000;" vertex="1" parent="619673pN2npM3stwNII7-124">
          <mxGeometry x="70" y="330" width="30" height="30" as="geometry" />
        </mxCell>
        <mxCell id="619673pN2npM3stwNII7-101" style="edgeStyle=orthogonalEdgeStyle;rounded=1;jumpStyle=none;jumpSize=6;orthogonalLoop=1;jettySize=auto;html=1;exitX=1;exitY=0.5;exitDx=0;exitDy=0;entryX=0;entryY=0.5;entryDx=0;entryDy=0;endArrow=classic;endFill=1;" edge="1" parent="619673pN2npM3stwNII7-124" source="619673pN2npM3stwNII7-1" target="619673pN2npM3stwNII7-100">
          <mxGeometry relative="1" as="geometry">
            <Array as="points">
              <mxPoint x="40" y="15" />
              <mxPoint x="40" y="345" />
            </Array>
          </mxGeometry>
        </mxCell>
        <mxCell id="619673pN2npM3stwNII7-128" value="" style="group" vertex="1" connectable="0" parent="1">
          <mxGeometry x="390" y="690" width="290" height="460" as="geometry" />
        </mxCell>
        <mxCell id="619673pN2npM3stwNII7-127" value="Primary" style="shape=umlFrame;whiteSpace=wrap;html=1;width=60;height=30;boundedLbl=1;verticalAlign=middle;align=left;spacingLeft=5;" vertex="1" parent="619673pN2npM3stwNII7-128">
          <mxGeometry width="290" height="460" as="geometry" />
        </mxCell>
        <mxCell id="619673pN2npM3stwNII7-125" value="" style="group" vertex="1" connectable="0" parent="619673pN2npM3stwNII7-128">
          <mxGeometry x="10" y="40" width="270" height="410" as="geometry" />
        </mxCell>
        <mxCell id="619673pN2npM3stwNII7-63" value="" style="ellipse;fillColor=#000000;strokeColor=none;" vertex="1" parent="619673pN2npM3stwNII7-125">
          <mxGeometry width="30" height="30" as="geometry" />
        </mxCell>
        <mxCell id="619673pN2npM3stwNII7-64" value="" style="shape=sumEllipse;perimeter=ellipsePerimeter;whiteSpace=wrap;html=1;backgroundOutline=1;" vertex="1" parent="619673pN2npM3stwNII7-125">
          <mxGeometry x="240" width="30" height="30" as="geometry" />
        </mxCell>
        <mxCell id="619673pN2npM3stwNII7-85" style="edgeStyle=orthogonalEdgeStyle;rounded=1;orthogonalLoop=1;jettySize=auto;html=1;exitX=1;exitY=0.25;exitDx=0;exitDy=0;endArrow=classic;endFill=1;entryX=0;entryY=0.5;entryDx=0;entryDy=0;fillColor=#f5f5f5;strokeColor=#666666;" edge="1" parent="619673pN2npM3stwNII7-125" source="619673pN2npM3stwNII7-65" target="619673pN2npM3stwNII7-64">
          <mxGeometry relative="1" as="geometry">
            <mxPoint x="240" y="40" as="targetPoint" />
            <Array as="points">
              <mxPoint x="100" y="135" />
              <mxPoint x="100" y="110" />
              <mxPoint x="130" y="110" />
              <mxPoint x="130" y="15" />
            </Array>
          </mxGeometry>
        </mxCell>
        <mxCell id="619673pN2npM3stwNII7-65" value="&quot;+&quot;" style="text;html=1;align=center;verticalAlign=middle;dashed=0;fillColor=#ffffff;strokeColor=#000000;" vertex="1" parent="619673pN2npM3stwNII7-125">
          <mxGeometry x="60" y="127.5" width="30" height="30" as="geometry" />
        </mxCell>
        <mxCell id="619673pN2npM3stwNII7-78" style="edgeStyle=orthogonalEdgeStyle;rounded=1;orthogonalLoop=1;jettySize=auto;html=1;exitX=1;exitY=0.5;exitDx=0;exitDy=0;entryX=0;entryY=0.5;entryDx=0;entryDy=0;endArrow=classic;endFill=1;" edge="1" parent="619673pN2npM3stwNII7-125" source="619673pN2npM3stwNII7-63" target="619673pN2npM3stwNII7-65">
          <mxGeometry relative="1" as="geometry">
            <Array as="points">
              <mxPoint x="40" y="15" />
              <mxPoint x="40" y="143" />
            </Array>
          </mxGeometry>
        </mxCell>
        <mxCell id="619673pN2npM3stwNII7-96" style="edgeStyle=orthogonalEdgeStyle;rounded=1;jumpStyle=arc;jumpSize=6;orthogonalLoop=1;jettySize=auto;html=1;exitX=1;exitY=0.5;exitDx=0;exitDy=0;entryX=0;entryY=0.5;entryDx=0;entryDy=0;endArrow=classic;endFill=1;" edge="1" parent="619673pN2npM3stwNII7-125" source="619673pN2npM3stwNII7-66" target="619673pN2npM3stwNII7-64">
          <mxGeometry relative="1" as="geometry">
            <mxPoint x="238.00000000000227" y="230" as="sourcePoint" />
            <mxPoint x="263" y="15" as="targetPoint" />
            <Array as="points">
              <mxPoint x="220" y="230" />
              <mxPoint x="220" y="15" />
            </Array>
          </mxGeometry>
        </mxCell>
        <mxCell id="619673pN2npM3stwNII7-66" value="Numerical Literal" style="ellipse;whiteSpace=wrap;" vertex="1" parent="619673pN2npM3stwNII7-125">
          <mxGeometry x="137" y="212.5" width="75" height="35" as="geometry" />
        </mxCell>
        <mxCell id="619673pN2npM3stwNII7-95" style="edgeStyle=orthogonalEdgeStyle;rounded=1;jumpStyle=arc;jumpSize=6;orthogonalLoop=1;jettySize=auto;html=1;exitX=1;exitY=0.75;exitDx=0;exitDy=0;entryX=0;entryY=0.5;entryDx=0;entryDy=0;endArrow=classic;endFill=1;" edge="1" parent="619673pN2npM3stwNII7-125" source="619673pN2npM3stwNII7-65" target="619673pN2npM3stwNII7-66">
          <mxGeometry relative="1" as="geometry">
            <Array as="points">
              <mxPoint x="120" y="150" />
              <mxPoint x="120" y="230" />
            </Array>
          </mxGeometry>
        </mxCell>
        <mxCell id="619673pN2npM3stwNII7-67" value="Identifier" style="ellipse;" vertex="1" parent="619673pN2npM3stwNII7-125">
          <mxGeometry x="60" width="60" height="30" as="geometry" />
        </mxCell>
        <mxCell id="619673pN2npM3stwNII7-68" style="edgeStyle=orthogonalEdgeStyle;rounded=1;orthogonalLoop=1;jettySize=auto;html=1;exitX=1;exitY=0.5;exitDx=0;exitDy=0;entryX=0;entryY=0.5;entryDx=0;entryDy=0;endArrow=classic;endFill=1;" edge="1" parent="619673pN2npM3stwNII7-125" source="619673pN2npM3stwNII7-63" target="619673pN2npM3stwNII7-67">
          <mxGeometry relative="1" as="geometry" />
        </mxCell>
        <mxCell id="619673pN2npM3stwNII7-86" style="edgeStyle=orthogonalEdgeStyle;rounded=1;orthogonalLoop=1;jettySize=auto;html=1;exitX=1;exitY=0.25;exitDx=0;exitDy=0;entryX=0;entryY=0.5;entryDx=0;entryDy=0;endArrow=classic;endFill=1;fillColor=#f5f5f5;strokeColor=#666666;" edge="1" parent="619673pN2npM3stwNII7-125" source="619673pN2npM3stwNII7-70" target="619673pN2npM3stwNII7-64">
          <mxGeometry relative="1" as="geometry">
            <Array as="points">
              <mxPoint x="100" y="175" />
              <mxPoint x="100" y="110" />
              <mxPoint x="130" y="110" />
              <mxPoint x="130" y="15" />
            </Array>
          </mxGeometry>
        </mxCell>
        <mxCell id="619673pN2npM3stwNII7-94" style="edgeStyle=orthogonalEdgeStyle;rounded=1;jumpStyle=arc;jumpSize=6;orthogonalLoop=1;jettySize=auto;html=1;exitX=1;exitY=0.75;exitDx=0;exitDy=0;entryX=0;entryY=0.5;entryDx=0;entryDy=0;endArrow=classic;endFill=1;" edge="1" parent="619673pN2npM3stwNII7-125" source="619673pN2npM3stwNII7-70" target="619673pN2npM3stwNII7-66">
          <mxGeometry relative="1" as="geometry">
            <Array as="points">
              <mxPoint x="120" y="190" />
              <mxPoint x="120" y="230" />
            </Array>
          </mxGeometry>
        </mxCell>
        <mxCell id="619673pN2npM3stwNII7-70" value="&quot;-&quot;" style="text;html=1;align=center;verticalAlign=middle;dashed=0;fillColor=#ffffff;strokeColor=#000000;" vertex="1" parent="619673pN2npM3stwNII7-125">
          <mxGeometry x="60" y="167.5" width="30" height="30" as="geometry" />
        </mxCell>
        <mxCell id="619673pN2npM3stwNII7-79" style="edgeStyle=orthogonalEdgeStyle;rounded=1;orthogonalLoop=1;jettySize=auto;html=1;exitX=1;exitY=0.5;exitDx=0;exitDy=0;entryX=0;entryY=0.5;entryDx=0;entryDy=0;endArrow=classic;endFill=1;" edge="1" parent="619673pN2npM3stwNII7-125" source="619673pN2npM3stwNII7-63" target="619673pN2npM3stwNII7-70">
          <mxGeometry relative="1" as="geometry">
            <Array as="points">
              <mxPoint x="40" y="15" />
              <mxPoint x="40" y="183" />
            </Array>
          </mxGeometry>
        </mxCell>
        <mxCell id="619673pN2npM3stwNII7-87" style="edgeStyle=orthogonalEdgeStyle;rounded=1;orthogonalLoop=1;jettySize=auto;html=1;exitX=1;exitY=0.25;exitDx=0;exitDy=0;entryX=0;entryY=0.5;entryDx=0;entryDy=0;endArrow=classic;endFill=1;fillColor=#f5f5f5;strokeColor=#666666;" edge="1" parent="619673pN2npM3stwNII7-125" source="619673pN2npM3stwNII7-71" target="619673pN2npM3stwNII7-64">
          <mxGeometry relative="1" as="geometry">
            <Array as="points">
              <mxPoint x="100" y="215" />
              <mxPoint x="100" y="110" />
              <mxPoint x="130" y="110" />
              <mxPoint x="130" y="15" />
            </Array>
          </mxGeometry>
        </mxCell>
        <mxCell id="619673pN2npM3stwNII7-92" style="edgeStyle=orthogonalEdgeStyle;rounded=1;orthogonalLoop=1;jettySize=auto;html=1;exitX=1;exitY=0.75;exitDx=0;exitDy=0;endArrow=classic;endFill=1;jumpStyle=arc;entryX=0;entryY=0.5;entryDx=0;entryDy=0;" edge="1" parent="619673pN2npM3stwNII7-125" source="619673pN2npM3stwNII7-71" target="619673pN2npM3stwNII7-66">
          <mxGeometry relative="1" as="geometry">
            <mxPoint x="130" y="260" as="targetPoint" />
            <Array as="points" />
          </mxGeometry>
        </mxCell>
        <mxCell id="619673pN2npM3stwNII7-71" value="&quot;*&quot;" style="text;html=1;align=center;verticalAlign=middle;dashed=0;fillColor=#ffffff;strokeColor=#000000;" vertex="1" parent="619673pN2npM3stwNII7-125">
          <mxGeometry x="60" y="207.5" width="30" height="30" as="geometry" />
        </mxCell>
        <mxCell id="619673pN2npM3stwNII7-80" style="edgeStyle=orthogonalEdgeStyle;rounded=1;orthogonalLoop=1;jettySize=auto;html=1;exitX=1;exitY=0.5;exitDx=0;exitDy=0;entryX=0;entryY=0.5;entryDx=0;entryDy=0;endArrow=classic;endFill=1;" edge="1" parent="619673pN2npM3stwNII7-125" source="619673pN2npM3stwNII7-63" target="619673pN2npM3stwNII7-71">
          <mxGeometry relative="1" as="geometry">
            <Array as="points">
              <mxPoint x="40" y="15" />
              <mxPoint x="40" y="223" />
            </Array>
          </mxGeometry>
        </mxCell>
        <mxCell id="619673pN2npM3stwNII7-88" style="edgeStyle=orthogonalEdgeStyle;rounded=1;orthogonalLoop=1;jettySize=auto;html=1;exitX=1;exitY=0.25;exitDx=0;exitDy=0;entryX=0;entryY=0.5;entryDx=0;entryDy=0;endArrow=classic;endFill=1;fillColor=#f5f5f5;strokeColor=#666666;" edge="1" parent="619673pN2npM3stwNII7-125" source="619673pN2npM3stwNII7-72" target="619673pN2npM3stwNII7-64">
          <mxGeometry relative="1" as="geometry">
            <Array as="points">
              <mxPoint x="100" y="255" />
              <mxPoint x="100" y="110" />
              <mxPoint x="130" y="110" />
              <mxPoint x="130" y="15" />
            </Array>
          </mxGeometry>
        </mxCell>
        <mxCell id="619673pN2npM3stwNII7-93" style="edgeStyle=orthogonalEdgeStyle;rounded=1;jumpStyle=arc;jumpSize=6;orthogonalLoop=1;jettySize=auto;html=1;exitX=1;exitY=0.75;exitDx=0;exitDy=0;endArrow=classic;endFill=1;entryX=0;entryY=0.5;entryDx=0;entryDy=0;" edge="1" parent="619673pN2npM3stwNII7-125" source="619673pN2npM3stwNII7-72" target="619673pN2npM3stwNII7-66">
          <mxGeometry relative="1" as="geometry">
            <mxPoint x="190" y="262.7931034482758" as="targetPoint" />
            <Array as="points">
              <mxPoint x="120" y="270" />
              <mxPoint x="120" y="230" />
            </Array>
          </mxGeometry>
        </mxCell>
        <mxCell id="619673pN2npM3stwNII7-72" value="&quot;/&quot;" style="text;html=1;align=center;verticalAlign=middle;dashed=0;fillColor=#ffffff;strokeColor=#000000;" vertex="1" parent="619673pN2npM3stwNII7-125">
          <mxGeometry x="60" y="247.5" width="30" height="30" as="geometry" />
        </mxCell>
        <mxCell id="619673pN2npM3stwNII7-81" style="edgeStyle=orthogonalEdgeStyle;rounded=1;orthogonalLoop=1;jettySize=auto;html=1;exitX=1;exitY=0.5;exitDx=0;exitDy=0;entryX=0;entryY=0.5;entryDx=0;entryDy=0;endArrow=classic;endFill=1;" edge="1" parent="619673pN2npM3stwNII7-125" source="619673pN2npM3stwNII7-63" target="619673pN2npM3stwNII7-72">
          <mxGeometry relative="1" as="geometry">
            <Array as="points">
              <mxPoint x="40" y="15" />
              <mxPoint x="40" y="263" />
            </Array>
          </mxGeometry>
        </mxCell>
        <mxCell id="619673pN2npM3stwNII7-89" style="edgeStyle=orthogonalEdgeStyle;rounded=1;orthogonalLoop=1;jettySize=auto;html=1;exitX=1;exitY=0.25;exitDx=0;exitDy=0;entryX=0;entryY=0.5;entryDx=0;entryDy=0;endArrow=classic;endFill=1;jumpStyle=none;jumpSize=6;fillColor=#f5f5f5;strokeColor=#666666;" edge="1" parent="619673pN2npM3stwNII7-125" source="619673pN2npM3stwNII7-73" target="619673pN2npM3stwNII7-64">
          <mxGeometry relative="1" as="geometry">
            <Array as="points">
              <mxPoint x="100" y="295" />
              <mxPoint x="100" y="110" />
              <mxPoint x="130" y="110" />
              <mxPoint x="130" y="15" />
            </Array>
          </mxGeometry>
        </mxCell>
        <mxCell id="619673pN2npM3stwNII7-90" style="edgeStyle=orthogonalEdgeStyle;rounded=1;orthogonalLoop=1;jettySize=auto;html=1;exitX=1;exitY=0.75;exitDx=0;exitDy=0;entryX=0;entryY=0.5;entryDx=0;entryDy=0;endArrow=classic;endFill=1;" edge="1" parent="619673pN2npM3stwNII7-125" source="619673pN2npM3stwNII7-73" target="619673pN2npM3stwNII7-66">
          <mxGeometry relative="1" as="geometry">
            <Array as="points">
              <mxPoint x="120" y="310" />
              <mxPoint x="120" y="230" />
            </Array>
          </mxGeometry>
        </mxCell>
        <mxCell id="619673pN2npM3stwNII7-73" value="&quot;=&quot;" style="text;html=1;align=center;verticalAlign=middle;dashed=0;fillColor=#ffffff;strokeColor=#000000;" vertex="1" parent="619673pN2npM3stwNII7-125">
          <mxGeometry x="60" y="287.5" width="30" height="30" as="geometry" />
        </mxCell>
        <mxCell id="619673pN2npM3stwNII7-82" style="edgeStyle=orthogonalEdgeStyle;rounded=1;orthogonalLoop=1;jettySize=auto;html=1;exitX=1;exitY=0.5;exitDx=0;exitDy=0;entryX=0;entryY=0.5;entryDx=0;entryDy=0;endArrow=classic;endFill=1;" edge="1" parent="619673pN2npM3stwNII7-125" source="619673pN2npM3stwNII7-63" target="619673pN2npM3stwNII7-73">
          <mxGeometry relative="1" as="geometry">
            <Array as="points">
              <mxPoint x="40" y="15" />
              <mxPoint x="40" y="303" />
            </Array>
          </mxGeometry>
        </mxCell>
        <mxCell id="619673pN2npM3stwNII7-83" style="edgeStyle=orthogonalEdgeStyle;rounded=1;orthogonalLoop=1;jettySize=auto;html=1;exitX=1;exitY=0.5;exitDx=0;exitDy=0;entryX=0;entryY=0.5;entryDx=0;entryDy=0;endArrow=classic;endFill=1;" edge="1" parent="619673pN2npM3stwNII7-125" source="619673pN2npM3stwNII7-74" target="619673pN2npM3stwNII7-64">
          <mxGeometry relative="1" as="geometry">
            <Array as="points">
              <mxPoint x="130" y="55" />
              <mxPoint x="130" y="15" />
            </Array>
          </mxGeometry>
        </mxCell>
        <mxCell id="619673pN2npM3stwNII7-74" value="&quot;.&quot;" style="text;html=1;align=center;verticalAlign=middle;dashed=0;fillColor=#ffffff;strokeColor=#000000;" vertex="1" parent="619673pN2npM3stwNII7-125">
          <mxGeometry x="60" y="40" width="30" height="30" as="geometry" />
        </mxCell>
        <mxCell id="619673pN2npM3stwNII7-76" style="edgeStyle=orthogonalEdgeStyle;rounded=1;orthogonalLoop=1;jettySize=auto;html=1;exitX=1;exitY=0.5;exitDx=0;exitDy=0;entryX=0;entryY=0.5;entryDx=0;entryDy=0;endArrow=classic;endFill=1;" edge="1" parent="619673pN2npM3stwNII7-125" source="619673pN2npM3stwNII7-63" target="619673pN2npM3stwNII7-74">
          <mxGeometry relative="1" as="geometry">
            <Array as="points">
              <mxPoint x="40" y="15" />
              <mxPoint x="40" y="55" />
            </Array>
          </mxGeometry>
        </mxCell>
        <mxCell id="619673pN2npM3stwNII7-75" value="&quot;,&quot;" style="text;html=1;align=center;verticalAlign=middle;dashed=0;fillColor=#ffffff;strokeColor=#000000;" vertex="1" parent="619673pN2npM3stwNII7-125">
          <mxGeometry x="60" y="80" width="30" height="30" as="geometry" />
        </mxCell>
        <mxCell id="619673pN2npM3stwNII7-98" style="edgeStyle=orthogonalEdgeStyle;rounded=1;jumpStyle=none;jumpSize=6;orthogonalLoop=1;jettySize=auto;html=1;exitX=1;exitY=0.75;exitDx=0;exitDy=0;entryX=0;entryY=0.5;entryDx=0;entryDy=0;endArrow=classic;endFill=1;" edge="1" parent="619673pN2npM3stwNII7-125" source="619673pN2npM3stwNII7-97" target="619673pN2npM3stwNII7-66">
          <mxGeometry relative="1" as="geometry">
            <Array as="points">
              <mxPoint x="120" y="363" />
              <mxPoint x="120" y="230" />
            </Array>
          </mxGeometry>
        </mxCell>
        <mxCell id="619673pN2npM3stwNII7-99" style="edgeStyle=orthogonalEdgeStyle;rounded=1;jumpStyle=none;jumpSize=6;orthogonalLoop=1;jettySize=auto;html=1;exitX=1;exitY=0.25;exitDx=0;exitDy=0;entryX=0;entryY=0.5;entryDx=0;entryDy=0;endArrow=classic;endFill=1;fillColor=#f5f5f5;strokeColor=#666666;" edge="1" parent="619673pN2npM3stwNII7-125" source="619673pN2npM3stwNII7-97" target="619673pN2npM3stwNII7-64">
          <mxGeometry relative="1" as="geometry">
            <Array as="points">
              <mxPoint x="100" y="347" />
              <mxPoint x="100" y="110" />
              <mxPoint x="130" y="110" />
              <mxPoint x="130" y="15" />
            </Array>
          </mxGeometry>
        </mxCell>
        <mxCell id="619673pN2npM3stwNII7-97" value="&quot;~&quot;" style="text;html=1;align=center;verticalAlign=middle;dashed=0;fillColor=#ffffff;strokeColor=#000000;" vertex="1" parent="619673pN2npM3stwNII7-125">
          <mxGeometry x="60" y="340" width="30" height="30" as="geometry" />
        </mxCell>
        <mxCell id="619673pN2npM3stwNII7-69" style="edgeStyle=orthogonalEdgeStyle;rounded=1;orthogonalLoop=1;jettySize=auto;html=1;exitX=1;exitY=0.5;exitDx=0;exitDy=0;entryX=0;entryY=0.5;entryDx=0;entryDy=0;endArrow=classic;endFill=1;" edge="1" parent="619673pN2npM3stwNII7-125" source="619673pN2npM3stwNII7-67" target="619673pN2npM3stwNII7-64">
          <mxGeometry relative="1" as="geometry" />
        </mxCell>
        <mxCell id="619673pN2npM3stwNII7-77" style="edgeStyle=orthogonalEdgeStyle;rounded=1;orthogonalLoop=1;jettySize=auto;html=1;exitX=1;exitY=0.5;exitDx=0;exitDy=0;entryX=0;entryY=0.5;entryDx=0;entryDy=0;endArrow=classic;endFill=1;" edge="1" parent="619673pN2npM3stwNII7-125" source="619673pN2npM3stwNII7-63" target="619673pN2npM3stwNII7-75">
          <mxGeometry relative="1" as="geometry">
            <Array as="points">
              <mxPoint x="40" y="15" />
              <mxPoint x="40" y="95" />
            </Array>
          </mxGeometry>
        </mxCell>
        <mxCell id="619673pN2npM3stwNII7-84" style="edgeStyle=orthogonalEdgeStyle;rounded=1;orthogonalLoop=1;jettySize=auto;html=1;exitX=1;exitY=0.5;exitDx=0;exitDy=0;entryX=0;entryY=0.5;entryDx=0;entryDy=0;endArrow=classic;endFill=1;" edge="1" parent="619673pN2npM3stwNII7-125" source="619673pN2npM3stwNII7-75" target="619673pN2npM3stwNII7-64">
          <mxGeometry relative="1" as="geometry">
            <Array as="points">
              <mxPoint x="130" y="95" />
              <mxPoint x="130" y="15" />
            </Array>
          </mxGeometry>
        </mxCell>
        <mxCell id="619673pN2npM3stwNII7-120" style="edgeStyle=orthogonalEdgeStyle;rounded=1;jumpStyle=none;jumpSize=6;orthogonalLoop=1;jettySize=auto;html=1;exitX=1;exitY=0.5;exitDx=0;exitDy=0;entryX=0;entryY=0.5;entryDx=0;entryDy=0;endArrow=classic;endFill=1;" edge="1" parent="619673pN2npM3stwNII7-125" source="619673pN2npM3stwNII7-119" target="619673pN2npM3stwNII7-66">
          <mxGeometry relative="1" as="geometry">
            <Array as="points">
              <mxPoint x="120" y="395" />
              <mxPoint x="120" y="230" />
            </Array>
          </mxGeometry>
        </mxCell>
        <mxCell id="619673pN2npM3stwNII7-119" value="&quot;@&quot;" style="text;html=1;align=center;verticalAlign=middle;dashed=0;fillColor=#ffffff;strokeColor=#000000;" vertex="1" parent="619673pN2npM3stwNII7-125">
          <mxGeometry x="60" y="380" width="30" height="30" as="geometry" />
        </mxCell>
        <mxCell id="619673pN2npM3stwNII7-123" style="edgeStyle=orthogonalEdgeStyle;rounded=1;jumpStyle=none;jumpSize=6;orthogonalLoop=1;jettySize=auto;html=1;exitX=1;exitY=0.5;exitDx=0;exitDy=0;entryX=0;entryY=0.5;entryDx=0;entryDy=0;endArrow=classic;endFill=1;" edge="1" parent="619673pN2npM3stwNII7-125" source="619673pN2npM3stwNII7-121" target="619673pN2npM3stwNII7-64">
          <mxGeometry relative="1" as="geometry">
            <Array as="points">
              <mxPoint x="220" y="395" />
              <mxPoint x="220" y="15" />
            </Array>
          </mxGeometry>
        </mxCell>
        <mxCell id="619673pN2npM3stwNII7-121" value="Primary" style="html=1;align=center;verticalAlign=middle;rounded=1;absoluteArcSize=1;arcSize=10;dashed=0;" vertex="1" parent="619673pN2npM3stwNII7-125">
          <mxGeometry x="137" y="380" width="60" height="30" as="geometry" />
        </mxCell>
        <mxCell id="619673pN2npM3stwNII7-122" style="edgeStyle=orthogonalEdgeStyle;rounded=1;jumpStyle=none;jumpSize=6;orthogonalLoop=1;jettySize=auto;html=1;exitX=1;exitY=0.5;exitDx=0;exitDy=0;entryX=0;entryY=0.5;entryDx=0;entryDy=0;endArrow=classic;endFill=1;" edge="1" parent="619673pN2npM3stwNII7-125" source="619673pN2npM3stwNII7-119" target="619673pN2npM3stwNII7-121">
          <mxGeometry relative="1" as="geometry" />
        </mxCell>
      </root>
    </mxGraphModel>
  </diagram>
</mxfile>
